<svg xmlns="http://www.w3.org/2000/svg" xmlns:xlink="http://www.w3.org/1999/xlink" width="77" height="48" viewBox="0 0 77 48">
  <defs>
    <clipPath id="clip-path">
      <rect id="Rectangle_2030" data-name="Rectangle 2030" width="77" height="48" rx="11" transform="translate(-12754 6166)" fill="#016fd0"/>
    </clipPath>
  </defs>
  <g id="Group_919" data-name="Group 919" transform="translate(12754 -6166)">
    <rect id="Rectangle_2025" data-name="Rectangle 2025" width="77" height="48" rx="11" transform="translate(-12754 6166)" fill="#016fd0"/>
    <path id="Path_2346" data-name="Path 2346" d="M38.9,165.057l-1.146-2.829-1.139,2.829m27.514-1.127a1.528,1.528,0,0,1-.828.147H61.269V162.5H63.33a1.7,1.7,0,0,1,.793.127.654.654,0,0,1,.351.628.727.727,0,0,1-.344.674m14.5,1.127-1.157-2.829-1.151,2.829ZM51.6,168.12H49.885l-.006-5.558-2.426,5.558H45.983l-2.432-5.563v5.563h-3.4l-.643-1.583H36.021l-.65,1.583H33.554l3-7.1h2.487l2.845,6.719v-6.719h2.731l2.19,4.814,2.011-4.814H51.6v7.1Zm6.837,0h-5.59v-7.1h5.59V162.5H54.521v1.279h3.822v1.455H54.521v1.415h3.916v1.469Zm7.881-5.185a2,2,0,0,1-1.179,1.891,1.94,1.94,0,0,1,.828.6,2.056,2.056,0,0,1,.278,1.3v1.395H64.556l-.006-.895a2.156,2.156,0,0,0-.264-1.383c-.245-.249-.617-.3-1.22-.3h-1.8v2.582H59.6v-7.1h3.849a3.889,3.889,0,0,1,2.026.34,1.662,1.662,0,0,1,.847,1.572M69,168.12H67.289v-7.1H69Zm19.806,0H86.431l-3.171-5.327v5.327H79.851l-.65-1.583H75.725l-.632,1.583H73.135a3.486,3.486,0,0,1-2.426-.785,3.6,3.6,0,0,1-.894-2.709,3.8,3.8,0,0,1,.9-2.774,3.366,3.366,0,0,1,2.541-.828h1.619v1.52H73.292a1.6,1.6,0,0,0-1.287.421,2.368,2.368,0,0,0-.481,1.608,2.481,2.481,0,0,0,.461,1.666,1.6,1.6,0,0,0,1.166.366H73.9l2.358-5.581h2.507l2.833,6.713v-6.713h2.548l2.941,4.942v-4.942H88.8v7.1Zm-55.268,1.394h2.859l.645-1.577h1.443l.643,1.577h5.625v-1.205l.5,1.21h2.92l.5-1.228v1.223H62.652l-.007-2.588h.271c.19.007.245.025.245.342v2.246h7.23v-.6a5.666,5.666,0,0,0,2.685.6h3.041l.651-1.577h1.443l.636,1.577h5.861v-1.5l.888,1.5h4.7v-9.9H85.644v1.169l-.65-1.169h-4.77v1.169l-.6-1.169H73.183a5.727,5.727,0,0,0-2.792.578v-.578H65.945v.578a2.729,2.729,0,0,0-1.89-.578H47.812l-1.09,2.556L45.6,159.616H40.486v1.169l-.562-1.169H35.561l-2.027,4.706-2.324,5.192Z" transform="translate(-12778.396 6019.119)" fill="#2d78bc"/>
    <path id="Path_2347" data-name="Path 2347" d="M38.9,168.8l-1.146-2.829L36.616,168.8m27.514-1.127a1.528,1.528,0,0,1-.828.147H61.269v-1.576H63.33a1.7,1.7,0,0,1,.793.127.654.654,0,0,1,.351.628.727.727,0,0,1-.344.674m14.5,1.127-1.157-2.829L76.322,168.8ZM51.6,171.862H49.885l-.006-5.558-2.426,5.558H45.983L43.551,166.3v5.563h-3.4l-.643-1.583H36.021l-.65,1.583H33.554l3-7.1h2.487l2.845,6.719v-6.719h2.731l2.19,4.814,2.011-4.814H51.6v7.1Zm6.837,0h-5.59v-7.1h5.59v1.479H54.521v1.279h3.822v1.455H54.521v1.415h3.916v1.469Zm7.881-5.185a2,2,0,0,1-1.179,1.891,1.94,1.94,0,0,1,.828.6,2.056,2.056,0,0,1,.278,1.3v1.395H64.556l-.006-.895a2.156,2.156,0,0,0-.264-1.383c-.245-.249-.617-.3-1.22-.3h-1.8v2.582H59.6v-7.1h3.849a3.889,3.889,0,0,1,2.026.34,1.662,1.662,0,0,1,.847,1.572M69,171.862H67.289v-7.1H69Zm19.806,0H86.431l-3.171-5.327v5.327H79.851l-.65-1.583H75.725l-.632,1.583H73.135a3.486,3.486,0,0,1-2.426-.785,3.6,3.6,0,0,1-.894-2.709,3.8,3.8,0,0,1,.9-2.774,3.366,3.366,0,0,1,2.541-.828h1.619v1.52H73.292a1.6,1.6,0,0,0-1.287.421,2.368,2.368,0,0,0-.481,1.608,2.481,2.481,0,0,0,.461,1.666,1.6,1.6,0,0,0,1.166.366H73.9l2.358-5.581h2.507l2.833,6.713v-6.713h2.548l2.941,4.942v-4.942H88.8v7.1Zm-55.268,1.394h2.859l.645-1.577h1.443l.643,1.577h5.625v-1.2l.5,1.21h2.92l.5-1.228v1.223H62.652l-.007-2.588h.271c.19.007.245.025.245.342v2.246h7.23v-.6a5.666,5.666,0,0,0,2.685.6h3.041l.651-1.577h1.443l.636,1.577h5.861v-1.5l.888,1.5h4.7v-9.9H85.644v1.169l-.65-1.169h-4.77v1.169l-.6-1.169H73.183a5.727,5.727,0,0,0-2.792.578v-.578H65.945v.578a2.729,2.729,0,0,0-1.89-.578H47.812l-1.09,2.556L45.6,163.358H40.486v1.169l-.562-1.169H35.561l-2.027,4.706-2.324,5.192Z" transform="translate(-12778.396 6015.957)" fill="#fff"/>
    <path id="Path_2348" data-name="Path 2348" d="M170.578,241.937V237.4h-4.192a3.464,3.464,0,0,0-2.1.578V237.4h-4.582a3.14,3.14,0,0,0-2,.578V237.4h-8.184v.578a4.314,4.314,0,0,0-2.257-.578h-5.4v.578a3.782,3.782,0,0,0-2.359-.578H133.47l-1.382,1.515-1.295-1.515h-9.024v9.9h8.854l1.425-1.538,1.341,1.538,5.458.006v-2.329h.536a5.614,5.614,0,0,0,2.331-.348v2.67h4.5v-2.58h.218c.277,0,.3.012.3.292v2.288h13.675a3.875,3.875,0,0,0,2.28-.633v.633h4.337a5.748,5.748,0,0,0,2.455-.456v-.01a3.58,3.58,0,0,0,1.094-4.888Zm-31.121,1.583h-2.089V245.9h-3.253l-2.062-2.349-2.142,2.349h-6.631v-7.093h6.733l2.059,2.325,2.13-2.325h5.349c1.328,0,2.82.373,2.82,2.336S140.921,243.52,139.458,243.52Zm10.074-.322a2.086,2.086,0,0,1,.278,1.295V245.9h-1.68v-.887a2.121,2.121,0,0,0-.271-1.389c-.245-.254-.617-.315-1.228-.315h-1.789V245.9H143.16v-7.093h3.865a4.094,4.094,0,0,1,2.014.335,1.663,1.663,0,0,1,.861,1.575,1.986,1.986,0,0,1-1.186,1.887A1.823,1.823,0,0,1,149.532,243.2Zm6.882-2.925h-3.921v1.29h3.825v1.447h-3.825v1.411l3.921.007V245.9h-5.587v-7.094h5.587v1.468Zm4.263,5.626h-3.26v-1.521h3.248a.968.968,0,0,0,.684-.176.634.634,0,0,0,.2-.461.613.613,0,0,0-.2-.47.87.87,0,0,0-.6-.157c-1.566-.053-3.526.049-3.526-2.2a2.094,2.094,0,0,1,2.393-2.112h3.357v1.51H159.9a1.129,1.129,0,0,0-.671.128.6.6,0,0,0,.115,1.04,1.927,1.927,0,0,0,.652.079l.9.026a2.676,2.676,0,0,1,1.912.57,1.984,1.984,0,0,1,.5,1.5C163.307,245.187,162.366,245.9,160.677,245.9Zm8.616-.685a2.829,2.829,0,0,1-2.08.685H163.98v-1.521h3.22a.938.938,0,0,0,.678-.176.625.625,0,0,0,.2-.461.587.587,0,0,0-.2-.47.839.839,0,0,0-.59-.157c-1.572-.053-3.533.049-3.533-2.2a2.1,2.1,0,0,1,2.4-2.112h3.271v1.509h-2.987a1.155,1.155,0,0,0-.678.128.554.554,0,0,0-.245.51.535.535,0,0,0,.366.529,1.879,1.879,0,0,0,.645.081l.907.025a2.618,2.618,0,0,1,1.9.571.953.953,0,0,1,.156.175l-.057-.074a2.329,2.329,0,0,1-.135,2.954Zm-40.148-4.941,1.832,2.067-1.913,2.081h-4.116V243.01h3.675v-1.447h-3.675v-1.289Zm3.987,2.091,2.571-2.8v5.687Zm7.445-1.222c0,.615-.4.937-1.044.937h-2.163v-1.806h2.183C140.156,240.274,140.577,240.522,140.577,241.143Zm7.471-.1a.767.767,0,0,1-.347.68,1.584,1.584,0,0,1-.826.146H144.84v-1.593H146.9a1.63,1.63,0,0,1,.8.128A.674.674,0,0,1,148.048,241.04Z" transform="translate(-12854.928 5953.388)" fill="#2d78bc"/>
    <path id="Path_2349" data-name="Path 2349" d="M170.578,245.679v-4.541h-4.192a3.464,3.464,0,0,0-2.1.578v-.578h-4.582a3.14,3.14,0,0,0-2,.578v-.578h-8.184v.578a4.314,4.314,0,0,0-2.257-.578h-5.4v.578a3.782,3.782,0,0,0-2.359-.578H133.47l-1.382,1.515-1.295-1.515h-9.024v9.9h8.854l1.425-1.538,1.341,1.538,5.458.006v-2.329h.536a5.614,5.614,0,0,0,2.331-.348v2.67h4.5v-2.58h.218c.277,0,.3.012.3.292v2.288h13.675a3.875,3.875,0,0,0,2.28-.633v.633h4.337a5.749,5.749,0,0,0,2.455-.456v-.01a3.58,3.58,0,0,0,1.094-4.889Zm-31.121,1.583h-2.089v2.379h-3.253l-2.062-2.349-2.142,2.349h-6.631v-7.093h6.733l2.059,2.325,2.13-2.325h5.349c1.328,0,2.82.373,2.82,2.336S140.921,247.262,139.458,247.262Zm10.074-.322a2.086,2.086,0,0,1,.278,1.295v1.406h-1.68v-.887a2.121,2.121,0,0,0-.271-1.389c-.245-.254-.617-.315-1.228-.315h-1.789v2.591H143.16v-7.093h3.865a4.094,4.094,0,0,1,2.014.335,1.663,1.663,0,0,1,.861,1.575,1.986,1.986,0,0,1-1.186,1.887A1.827,1.827,0,0,1,149.532,246.94Zm6.882-2.925h-3.921v1.29h3.825v1.447h-3.825v1.411l3.921.007v1.472h-5.587v-7.095h5.587v1.468Zm4.263,5.626h-3.26v-1.521h3.248a.968.968,0,0,0,.684-.176.634.634,0,0,0,.2-.461.613.613,0,0,0-.2-.47.87.87,0,0,0-.6-.157c-1.566-.053-3.526.049-3.526-2.2a2.094,2.094,0,0,1,2.393-2.112h3.357v1.51H159.9a1.129,1.129,0,0,0-.671.128.6.6,0,0,0,.115,1.04,1.927,1.927,0,0,0,.652.079l.9.026a2.676,2.676,0,0,1,1.912.57,1.984,1.984,0,0,1,.5,1.5C163.307,248.929,162.366,249.642,160.677,249.642Zm8.616-.685a2.829,2.829,0,0,1-2.08.685H163.98v-1.521h3.22a.938.938,0,0,0,.678-.176.625.625,0,0,0,.2-.461.587.587,0,0,0-.2-.47.839.839,0,0,0-.59-.157c-1.572-.053-3.533.049-3.533-2.2a2.1,2.1,0,0,1,2.4-2.112h3.271v1.509h-2.987a1.155,1.155,0,0,0-.678.128.554.554,0,0,0-.245.51.535.535,0,0,0,.366.529,1.879,1.879,0,0,0,.645.081l.907.025a2.618,2.618,0,0,1,1.9.571.954.954,0,0,1,.156.175l-.057-.074a2.329,2.329,0,0,1-.135,2.954Zm-40.148-4.941,1.832,2.067-1.913,2.081h-4.116v-1.411h3.675V245.3h-3.675v-1.289Zm3.987,2.091,2.571-2.8V249Zm7.445-1.222c0,.615-.4.937-1.044.937h-2.163v-1.806h2.183C140.156,244.016,140.577,244.264,140.577,244.885Zm7.471-.1a.767.767,0,0,1-.347.68,1.584,1.584,0,0,1-.826.146H144.84v-1.593H146.9a1.63,1.63,0,0,1,.8.128A.674.674,0,0,1,148.048,244.782Z" transform="translate(-12854.928 5950.226)" fill="#fff"/>
  </g>
</svg>
