<svg xmlns="http://www.w3.org/2000/svg" width="77" height="48" viewBox="0 0 77 48">
  <g id="Group_917" data-name="Group 917" transform="translate(12565 -6166)">
    <g id="Path_2351" data-name="Path 2351" transform="translate(-12565 6166)" fill="none">
      <path d="M11,0H66A11,11,0,0,1,77,11V37A11,11,0,0,1,66,48H11A11,11,0,0,1,0,37V11A11,11,0,0,1,11,0Z" stroke="none"/>
      <path d="M 11 1 C 5.485977172851563 1 1 5.485977172851563 1 11 L 1 37 C 1 42.51402282714844 5.485977172851563 47 11 47 L 66 47 C 71.51402282714844 47 76 42.51402282714844 76 37 L 76 11 C 76 5.485977172851563 71.51402282714844 1 66 1 L 11 1 M 11 0 L 66 0 C 72.07513427734375 0 77 4.92486572265625 77 11 L 77 37 C 77 43.07513427734375 72.07513427734375 48 66 48 L 11 48 C 4.92486572265625 48 0 43.07513427734375 0 37 L 0 11 C 0 4.92486572265625 4.92486572265625 0 11 0 Z" stroke="none" fill="#d6d6d6"/>
    </g>
    <g id="diners-club" transform="translate(-12618.711 6140.406)">
      <path id="Path_2355" data-name="Path 2355" d="M81929.7,41052.18c0,.672.477.75.9.75a2.434,2.434,0,0,0,2.516-2.727,2.629,2.629,0,0,0-2.734-2.82c-.359,0-.531.031-.68.039v4.758Zm20.7-5.648c4.516.023,8.641-3.687,8.641-8.2a8.444,8.444,0,0,0-8.641-8.344h-3.9a8.161,8.161,0,0,0-8.336,8.344,8.285,8.285,0,0,0,8.336,8.2Zm-2.164-3.8v-8.957a4.793,4.793,0,0,1,0,8.957Zm-6.516-4.477a4.808,4.808,0,0,1,3.086-4.48v8.957a4.807,4.807,0,0,1-3.086-4.477Zm4.8-7.57a7.57,7.57,0,1,0,7.57,7.57A7.572,7.572,0,0,0,81946.508,41030.68Zm22.266,24.8h.055c.063,0,.1-.051.1-.125s-.047-.109-.1-.109h-.055v.234Zm-.164.262v-.023c.055-.008.063,0,.063-.043v-.375c0-.051,0-.07-.062-.062v-.027h.258c.086,0,.164.039.164.129a.158.158,0,0,1-.125.156l.094.117a.459.459,0,0,0,.109.117v.012h-.1c-.047,0-.086-.1-.18-.23h-.055v.168c0,.031.008.031.07.039v.023Zm.25.145a.409.409,0,0,0,0-.816.408.408,0,0,0-.4.41A.4.4,0,0,0,81968.859,41055.891Zm0-.91a.5.5,0,0,1,0,1,.5.5,0,1,1,0-1Zm-.125,3.477c-.422,0-.836-.02-1.25-.02s-.844.02-1.266.02h-.016v-.184h.078c.172-.008.344-.016.344-.3v-2.445c0-.234-.156-.25-.344-.25h-.078v-.184h.016c.258,0,.508.016.75.016s.484-.016.734-.016h.016v.184h-.141c-.187,0-.3,0-.3.234v2.453c0,.18.109.227.266.25.078,0,.172.008.266.008.109,0,.234,0,.359-.016a.661.661,0,0,0,.438-.25.884.884,0,0,0,.141-.336l.008-.016h.18v.023c-.055.273-.125.539-.18.813l-.008.012Zm-4.531-2.8Zm-.406,1.324h.828l-.414-1.273Zm.422-1.328h0Zm1.844,2.809c-.219-.008-.437-.02-.664-.02s-.469.012-.711.02l-.016,0v-.187h.07c.109,0,.273-.023.273-.117a2.147,2.147,0,0,0-.094-.336l-.18-.539h-1.055l-.148.48a3.175,3.175,0,0,0-.1.367c0,.117.18.145.328.145h.078v.188l-.016,0c-.2-.008-.391-.02-.578-.02-.172,0-.344.012-.508.02l-.023,0v-.187h.047a.4.4,0,0,0,.391-.3l.766-2.18c.063-.176.141-.414.188-.605a2.312,2.312,0,0,0,.438-.2.092.092,0,0,1,.039-.012.067.067,0,0,1,.055.031c.016.035.031.078.047.117l.875,2.488c.055.168.109.34.172.484a.278.278,0,0,0,.3.176h.047v.188l-.016,0Zm-3.773.074-.2-.008-2.414-2.691v1.91c.008.414.07.523.43.531h.094v.184h-.016c-.2,0-.406-.02-.617-.02s-.43.02-.648.02h-.016v-.184h.094c.313,0,.391-.2.4-.582v-2a.4.4,0,0,0-.414-.406h-.078v-.184h.016c.188,0,.375.016.547.016.141,0,.281-.016.445-.012l2.086,2.355v-1.75c0-.379-.25-.426-.391-.426h-.125v-.184h.016c.227,0,.453.016.672.016.188,0,.391-.016.586-.016h.016v.184h-.086c-.2,0-.4.023-.406.582v2.164a3.136,3.136,0,0,0,.031.48v.023Zm-5.234-.234v-.016c.906,0,1.07-.8,1.07-1.488s-.375-1.516-1.148-1.52c-.82,0-1.055.727-1.055,1.359,0,.852.375,1.645,1.133,1.648v.016m-1.852-1.5a1.767,1.767,0,0,1,1.781-1.777v0a1.7,1.7,0,0,1,1.844,1.664,1.771,1.771,0,0,1-1.82,1.844,1.718,1.718,0,0,1-1.8-1.73Zm-.109,1.656c-.234,0-.516-.02-.766-.02-.219,0-.5.02-.687.02h-.023v-.184h.086c.172,0,.328-.016.328-.25v-2.492c0-.23-.156-.25-.328-.25h-.086v-.184h.023c.188,0,.469.016.7.016s.516-.016.75-.016h.016v.184h-.094c-.172,0-.328.02-.328.25v2.492c0,.234.156.25.328.25h.094v.184Zm-2.484,0c-.187,0-.516-.02-.781-.02-.281,0-.609.02-.8.02H81951v-.184h.117c.266-.008.367-.008.375-.375v-2.523h-.758v0c-.352.008-.344.063-.422.414v.02h-.187v-.027a3.486,3.486,0,0,0,.055-.4,2.3,2.3,0,0,0,.039-.4v-.023h.141l.016.02c.023.117.109.117.234.117.008,0,.016,0,.023,0h2.453c.133,0,.227,0,.242-.129v-.023l.016,0,.141.02v.023c-.016.125-.047.258-.055.383s-.008.258-.008.383v.016l-.016,0-.172.063v-.027c-.016-.18-.031-.437-.328-.437h-.766v2.508c.008.363.156.383.375.391h.109v.184Zm-3.937-2.8Zm-.414,1.324h.836l-.422-1.273Zm.43-1.328h0Zm1.836,2.809c-.211-.008-.43-.02-.648-.02-.242,0-.477.012-.719.02l-.023,0v-.187h.07c.109,0,.281-.023.281-.117a1.937,1.937,0,0,0-.094-.336l-.187-.539h-1.047l-.148.48a2.1,2.1,0,0,0-.1.367c0,.117.172.145.328.145h.078v.184h-.016c-.2-.008-.391-.02-.578-.02-.172,0-.344.012-.516.02h-.016v-.184h.047a.4.4,0,0,0,.391-.3l.766-2.18c.063-.18.141-.414.188-.605a2.006,2.006,0,0,0,.43-.207c.008,0,.031-.008.047-.008a.08.08,0,0,1,.055.023.686.686,0,0,0,.047.125l.875,2.484a3.751,3.751,0,0,0,.172.488.273.273,0,0,0,.3.176h.047v.184Zm-4.039-.957Zm.266,1.031-.187-.008-2.414-2.691v1.91c.008.406.07.523.43.531h.094v.184h-.016c-.2,0-.406-.02-.617-.02s-.43.02-.648.02h-.016v-.184h.086c.32,0,.406-.2.406-.582v-2a.4.4,0,0,0-.414-.406h-.078v-.184h.016c.188,0,.367.016.547.016.141,0,.281-.016.445-.012l2.086,2.355v-1.75c0-.379-.25-.426-.391-.426h-.125v-.184h.016c.227,0,.453.016.672.016.188,0,.383-.016.578-.016h.023v.184h-.094c-.2,0-.4.023-.4.582v2.164a2.386,2.386,0,0,0,.031.48v.023Zm-5.484-1.828c.469,0,.7-.168.719-.719a.633.633,0,0,0-.68-.676c-.125,0-.187.012-.25.012v1.383Zm1.984,1.754c-.156,0-.312-.02-.469-.02-.141,0-.3.02-.453.016a11.2,11.2,0,0,1-.984-1.539h-.289v1c.008.359.148.352.367.359h.109v.184h-.016c-.281,0-.555-.02-.828-.02-.219,0-.445.02-.687.02h-.023v-.184h.109c.172,0,.32-.074.32-.234v-2.418c0-.34-.172-.336-.32-.34h-.109v-.184h.023c.156,0,.445.016.734.016s.516-.016.766-.016c.609,0,1.156.168,1.156.855a.911.911,0,0,1-.648.848l.8,1.2a.5.5,0,0,0,.445.277l.023,0v.18Zm-3.625,0c-.312,0-.859-.02-1.281-.02s-1,.02-1.266.02h-.023v-.184h.086c.172,0,.328-.016.328-.25v-2.492c0-.23-.156-.25-.328-.25h-.086v-.184h.023c.281,0,.781.016,1.188.016.391,0,.891-.016,1.211-.016h.023v.02a2.43,2.43,0,0,0-.008.246c0,.168.008.344.016.48v.016l-.016.008-.164.039v-.023c-.031-.309-.07-.531-.562-.539h-.641v1.211h.547c.266-.008.328-.145.352-.4l.008-.02h.172v.023c0,.188-.008.371-.008.555s.008.359.008.543v.016l-.008,0-.164.031-.008-.02c-.023-.293-.039-.449-.352-.457h-.547v1.094c0,.289.25.281.563.289.57-.008.8-.031.938-.57l.016-.02.016,0,.148.043v.02a6.441,6.441,0,0,0-.164.75v.02h-.016Zm-3.555,0c-.187,0-.523-.02-.773-.02-.281,0-.609.02-.8.02h-.023v-.184h.109c.266-.008.375-.008.375-.375v-2.523h-.758v0c-.352.008-.344.063-.422.414v.02h-.18v-.027c.016-.129.047-.266.055-.4a2.3,2.3,0,0,0,.023-.4v-.023h.156v.02c.031.117.125.117.25.121h2.469c.141,0,.234,0,.234-.129l.016-.023.016,0,.133.02-.008.023c-.016.125-.031.258-.047.383s-.008.258-.008.383v.016l-.016,0-.164.063v-.027c-.016-.18-.031-.437-.344-.437h-.75v2.508c0,.363.141.383.375.391h.109v.184Zm-3.055.074-.2-.008-2.406-2.691v1.91c.008.414.07.523.422.531h.109v.184h-.016c-.219,0-.414-.02-.625-.02s-.422.02-.641.02h-.023v-.184h.086c.313,0,.406-.2.406-.582v-2a.4.4,0,0,0-.406-.406h-.086v-.184h.023c.172,0,.359.016.547.016.141,0,.273-.016.438-.012l2.094,2.355v-1.75c-.008-.379-.266-.426-.4-.426h-.125v-.184h.023c.219,0,.438.016.664.016.2,0,.383-.016.586-.016h.016v.184h-.086c-.2,0-.4.023-.4.582v2.164a4.739,4.739,0,0,0,.016.48l.008.023Zm-3.547-.074c-.227,0-.516-.02-.75-.02s-.516.02-.7.02H81928v-.184h.086c.172-.008.336-.016.336-.25v-2.492c0-.234-.164-.25-.336-.25H81928v-.184h.023c.18,0,.469.016.7.016s.523-.016.742-.016h.031v.184h-.094c-.172,0-.328.016-.328.25v2.492c0,.234.156.25.328.25h.094v.188h-.031Zm36.281-6.234a.941.941,0,0,0,.9.895c.938,0,1.336-.922,1.336-1.7a1.673,1.673,0,0,0-1.406-1.727,1.334,1.334,0,0,0-.828.41Zm0-2.379a2.191,2.191,0,0,1,1.3-.629,1.7,1.7,0,0,1,1.625,1.836,2.207,2.207,0,0,1-2.078,2.293,2.53,2.53,0,0,1-1.219-.309l-.266.2-.187-.094a10.274,10.274,0,0,0,.125-1.559v-3.758c0-.566-.133-.586-.469-.684V41047a5.1,5.1,0,0,0,.906-.375.758.758,0,0,1,.2-.094c.055,0,.07.055.07.121v3.191Zm-1.734,2.883c0,.16.086.168.234.168.109,0,.242-.008.359-.008v.184a8.969,8.969,0,0,0-1.266.273l-.047-.027v-.711a2.347,2.347,0,0,1-1.547.738.945.945,0,0,1-.961-1.039v-2.242c0-.227-.039-.445-.523-.492v-.164c.313-.008,1.016-.062,1.125-.062.094,0,.094.063.094.254v2.254c0,.266,0,1.016.766,1.016a1.948,1.948,0,0,0,1.055-.531v-2.352c0-.172-.414-.273-.727-.359v-.156c.781-.055,1.273-.125,1.359-.125s.078.063.078.16v3.223Zm-5.625.258h.172c.242,0,.414,0,.414-.289v-4.871c0-.566-.133-.586-.461-.684V41047a5.652,5.652,0,0,0,.906-.375.6.6,0,0,1,.188-.1c.055,0,.07.055.07.125v6.043c0,.289.2.289.445.289h.141v.227c-.3,0-.6-.016-.922-.016s-.625.008-.953.016v-.227Zm-.312-4.3h-.219a1.659,1.659,0,0,0-1.875-1.43,2.5,2.5,0,0,0-2.469,2.77,2.852,2.852,0,0,0,2.609,3.035,1.78,1.78,0,0,0,1.758-1.516l.2.055-.2,1.277a4.838,4.838,0,0,1-1.93.465,3.117,3.117,0,0,1-3.344-3.289,3.221,3.221,0,0,1,3.313-3.082,6.28,6.28,0,0,1,2.063.465l.094,1.25Zm-10.406,3.3a1.149,1.149,0,0,0,1.1,1.07.621.621,0,0,0,.711-.621c0-1.035-1.906-.7-1.906-2.109a1.2,1.2,0,0,1,1.359-1.117,2.328,2.328,0,0,1,.992.254l.055.891h-.2a.888.888,0,0,0-.945-.867.613.613,0,0,0-.68.578c0,1.023,2.023.711,2.023,2.082,0,.574-.461,1.191-1.508,1.191a2.365,2.365,0,0,1-1.062-.3l-.094-1.008.156-.047Zm-3.375.992h.25c.242,0,.414,0,.414-.289v-2.457c0-.27-.32-.324-.453-.395v-.133c.633-.27.984-.5,1.063-.5.055,0,.086.027.086.113v.789h.016c.219-.344.586-.9,1.117-.9a.472.472,0,0,1,.492.465.418.418,0,0,1-.406.445c-.266,0-.266-.211-.57-.211a.736.736,0,0,0-.641.727v2.055c0,.289.172.289.414.289h.492v.227c-.477-.008-.852-.016-1.227-.016-.359,0-.719.008-1.031.016v-.227Zm-1.187-2.465c.219,0,.242-.113.242-.223a.742.742,0,0,0-.758-.8c-.531,0-.906.395-1.008,1.027Zm-1.555.277a4.931,4.931,0,0,0,0,.508,1.468,1.468,0,0,0,1.289,1.516,1.707,1.707,0,0,0,1.188-.586l.117.121a2.046,2.046,0,0,1-1.617.988,1.761,1.761,0,0,1-1.672-1.91c0-1.715,1.156-2.219,1.766-2.219a1.4,1.4,0,0,1,1.484,1.371.506.506,0,0,1-.016.156l-.078.055Zm-4.469-.422c0-.32-.1-.406-.508-.574v-.168a11.75,11.75,0,0,0,1.156-.418c.016,0,.047.02.047.086v.566a2.563,2.563,0,0,1,1.516-.652c.734,0,1,.543,1,1.223v2.258c0,.289.2.289.438.289h.156v.227c-.3,0-.609-.016-.922-.016s-.633.008-.945.016v-.227h.164c.242,0,.414,0,.414-.289v-2.266c0-.5-.3-.742-.8-.742a2.336,2.336,0,0,0-1.016.422v2.586c0,.289.2.289.438.289h.156v.227c-.3,0-.609-.016-.922-.016s-.633.008-.953.016v-.227h.156c.25,0,.43,0,.43-.289v-2.32Zm-1.773-2.508a.447.447,0,0,1-.422-.437.43.43,0,0,1,.859,0,.447.447,0,0,1-.437.438Zm-.937,5.117h.172c.242,0,.422,0,.422-.289v-2.371c0-.383-.133-.437-.453-.613v-.141c.406-.121.9-.289.938-.312a.264.264,0,0,1,.156-.043c.039,0,.055.051.055.121v3.359c0,.289.2.289.438.289h.148v.227c-.3,0-.6-.016-.922-.016s-.625.008-.953.016Zm-5.539-4.906c0-.789-.414-.734-.8-.742v-.227c.344.016.688.016,1.031.016.375,0,.867-.016,1.516-.016a3.185,3.185,0,0,1,3.5,3.059c0,.863-.516,3.043-3.609,3.043-.437,0-.859-.016-1.266-.016-.391,0-.781.008-1.172.016v-.227c.531-.055.781-.07.8-.664Z" transform="translate(-81856.469 -40994.668)" fill="#0b56a6" fill-rule="evenodd"/>
    </g>
  </g>
</svg>
