<svg width="191" height="53" viewBox="0 0 191 53" fill="none" xmlns="http://www.w3.org/2000/svg">
<g clip-path="url(#clip0_2988_4404)">
<g clip-path="url(#clip1_2988_4404)">
<path fill-rule="evenodd" clip-rule="evenodd" d="M0.00390625 0H190.983V38.9431H0.00390625V0Z" fill="#1DACA5"/>
<path fill-rule="evenodd" clip-rule="evenodd" d="M115.106 8.38354V8.34534L130.788 8.35861L131.922 8.38354L133.017 8.44667L134.037 8.56127L135.005 8.70097L135.898 8.90435L136.763 9.1461L137.541 9.46336L138.291 9.80644L138.929 10.2383L139.527 10.7085L140.088 11.2962L140.483 11.9058L140.827 12.5538L141.069 13.2774L141.209 14.0398L141.26 14.8273L141.209 15.3614L141.159 15.8815L141.006 16.4692L140.801 16.9767L140.547 17.4344L140.267 17.8788L139.924 18.2975L139.556 18.6912L139.098 19.0974L138.601 19.4279L138.423 19.5015L138.601 19.641L139.06 20.0472L139.736 20.9493L140.195 21.8763L140.385 22.4353L140.539 23.023L140.612 23.9118L140.637 24.2174L140.71 24.5987L140.749 25.0049L144.558 25.0182L144.749 30.9117L136.749 30.8993L136.188 30.8735L135.628 30.7722L135.016 30.6194L134.456 30.3653L133.971 30.1111L133.474 29.7804L132.977 29.3611L132.582 28.9417L132.225 28.5354L131.868 28.0528L131.563 27.5318L131.283 26.9979L131.13 26.6167V30.8977L115.282 30.8846V30.9228L99.498 30.8977V28.2173L98.3896 30.8977L90.8476 30.8846L90.0198 28.7763V30.8846L76.1082 30.8721L76.1215 24.9786H77.9425L78.3385 24.9527L78.6947 24.9271L78.9246 24.9014L79.1158 24.8381L79.1789 24.8258V24.7999L79.2177 24.5062L79.2309 14.7767L79.1929 14.4593V14.3579L79.0907 14.3321L78.746 14.3072L78.3518 14.2566L77.9565 14.2441L76.1341 14.2308L76.1473 8.33727L91.2694 8.36292L95.461 18.6641L99.6016 8.36292L115.106 8.38354ZM115.309 14.2396V14.2778H113.473L113.051 14.3285L112.657 14.3667L112.325 14.4299L112.045 14.4939L111.956 14.5195L111.905 14.5577L111.879 14.5827L111.841 14.7737L111.828 24.5164V24.5546L111.892 24.7449L111.905 24.8082L112.007 24.8338L112.301 24.897L112.595 24.9477L112.99 24.9983L113.423 25.0116L115.092 25.0241V24.9734H116.876L117.59 24.9352L117.883 24.897L118.104 24.8464L118.142 24.7574L118.18 24.6303L118.194 24.5164L118.207 14.7862L118.181 14.6334L118.118 14.3667L117.978 14.3411L117.672 14.3153L117.29 14.2647L116.933 14.2389L115.309 14.2396ZM101.334 24.9983L101.691 24.9859L102.009 24.9352L102.29 24.897L102.519 24.8338L102.621 24.8082L102.646 24.681L102.71 24.4782V24.4651L102.723 20.3881L100.825 24.9983H101.334ZM88.5302 24.9859L86.8235 20.629V24.4782L86.8361 24.6303L86.8494 24.7192L86.8874 24.7926L86.8999 24.8308L86.939 24.8433L87.169 24.8941L87.4229 24.9323L87.7543 24.9579L88.2002 24.9836L88.5302 24.9859ZM130.584 24.3636L130.546 24.2108V24.0207L130.533 23.9949L130.482 23.7158L130.409 23.5381L130.344 23.1708L130.306 22.8916L130.191 22.4339L130.141 22.2687L130.127 22.2436L130.076 22.193L130.026 22.1805L129.886 22.1548L129.225 22.1041L128.868 22.0784H127.939L127.926 24.5297L127.964 24.8236V24.8742L128.091 24.8991L128.447 24.9499L128.83 24.9755L129.277 24.9881L130.678 25.0006L130.588 24.5055L130.584 24.3636ZM131.655 15.7389L131.616 15.4216L131.515 15.1675L131.411 15.0147L131.158 14.8368L130.736 14.6209L130.227 14.4681L129.501 14.3793L128.533 14.3285L127.68 14.3036V16.8187H128.33L129.349 16.793L130.138 16.6784L130.8 16.5389L131.232 16.3605L131.452 16.2208L131.567 16.0938L131.631 15.941L131.655 15.7389ZM173.517 21.1249L173.3 22.4332L173.021 23.6145L172.625 24.7956L172.064 25.9129L171.403 26.9163L170.574 27.8052L169.693 28.5927L168.686 29.3037L167.578 29.9135L166.329 30.4085L165.043 30.7898L163.616 31.0946L162.126 31.3106L160.534 31.4121L158.865 31.4627H157.974L157.158 31.3995L156.394 31.3364L155.604 31.2474L154.865 31.1328L154.152 31.019L153.413 30.8405L152.763 30.6752L152.062 30.4592L151.489 30.2308L150.84 30.0016L150.228 29.7078L149.667 29.3904L149.145 29.0966L148.598 28.7293L148.126 28.3862L147.578 27.9544L147.17 27.51L146.724 27.1038L146.342 26.6086L145.947 26.126L145.653 25.6059L145.336 25.11L144.812 23.9671L144.647 23.4081L144.444 22.8204L144.202 21.5752L144.163 20.9405L144.089 20.3184V18.952L144.178 18.3298L144.216 17.7077L144.357 17.0215L144.485 16.3994L144.688 15.8278L144.853 15.2401L145.389 14.1096L145.707 13.5888L146.013 13.0679L146.42 12.5604L146.828 12.0778L147.273 11.6716L147.681 11.2528L148.7 10.4779L149.288 10.1223L149.823 9.79173L150.411 9.51267L150.984 9.23344L151.659 8.95367L152.309 8.72519L152.997 8.52163L154.348 8.19111L155.099 8.07651L155.799 7.97518L156.59 7.88623L158.143 7.78418L159.826 7.79727L161.442 7.91115L162.232 8.00011L163.722 8.22859L165.148 8.58404L165.798 8.7876L166.486 9.02917L167.11 9.29585L167.709 9.58979L168.257 9.88355L168.845 10.2134L169.406 10.5807L169.916 10.9745L170.399 11.4063L170.767 11.8251L171.187 12.2313L171.543 12.7265L171.875 13.2091L172.181 13.7173L172.436 14.2381L172.678 14.7839L173.085 15.9021L173.252 16.5242L173.379 17.1722L173.452 17.7818L173.526 18.4164L173.564 19.1026L173.551 21.1227L173.517 21.1249ZM162.792 18.7624L162.767 18.3813L162.728 17.9405L162.703 17.5343L162.664 17.2037L162.538 16.5425L162.41 15.9322L162.232 15.4121L162.167 15.2086L161.926 14.7891L161.823 14.6114L161.607 14.2683L161.391 14.0523L161.136 13.8488L160.83 13.6836L160.435 13.5315L160.001 13.4044L159.53 13.3413L158.943 13.3163L158.396 13.3413L157.962 13.392L157.542 13.519L157.175 13.6461L156.856 13.8239L156.576 14.0141L156.296 14.2683L156.13 14.4711L156.08 14.5848L155.939 14.8266L155.866 15.0043L155.776 15.246L155.687 15.4876L155.614 15.7925L155.512 16.1232L155.448 16.3897L155.385 16.7453L155.321 17.0752L155.282 17.4695L155.209 17.8883L155.184 18.2057L155.17 18.6501L155.132 19.0908V19.9672L155.17 20.4498L155.157 20.8906L155.183 21.2335L155.257 21.6398L155.296 22.0343L155.346 22.3516L155.41 22.7072L155.475 22.9863L155.576 23.3293L155.649 23.6342L155.713 23.8378L155.816 24.1168L155.889 24.2945L156.029 24.5356L156.093 24.6884L156.271 24.9292L156.565 25.1959L156.859 25.4626L157.164 25.641L157.508 25.7808L157.929 25.9077L158.349 25.9813L158.872 26.0069L159.42 25.9813L159.903 25.9305L160.325 25.8166L160.681 25.6638L161 25.4986L161.28 25.2827L161.509 25.0284L161.905 24.4827L162.033 24.2409L162.134 24.0881L162.3 23.6695L162.373 23.4278L162.513 22.8313L162.577 22.4751L162.641 22.1453L162.68 21.8153L162.718 21.396L162.791 20.5445L162.792 18.7624ZM46.6073 20.9346L46.5176 21.57L46.4032 22.2054L46.2762 22.777L46.1481 23.3991L45.7281 24.5297L45.4989 25.0763L45.1801 25.6228L44.9003 26.0804L44.5947 26.5505L44.2374 26.9913L43.8432 27.4232L43.4473 27.8044L43.0269 28.1601L42.5046 28.567L41.4343 29.1509L40.8468 29.4558L40.2489 29.6974L39.5986 29.9266L38.9487 30.1294L38.2485 30.3072L37.5344 30.4467L36.8087 30.5738L36.0189 30.6884L35.242 30.762L34.4389 30.8353L33.5853 30.8868L32.6936 30.9117L17.418 30.8522L17.4438 24.9587H19.2803L19.6996 24.9463L20.0564 24.9205L20.3122 24.8823L20.5407 24.8317L20.6142 24.8059L20.678 24.5899L20.6913 24.501L20.7419 14.7715L20.7293 14.6187L20.6655 14.3646L20.4621 14.3264L20.1181 14.3013L19.7232 14.2507L19.328 14.2249L17.5055 14.2125L17.531 8.31898L32.36 8.3821L33.2908 8.4203L34.1817 8.48343L35.0236 8.55696L35.8267 8.64574L36.6412 8.76034L37.3927 8.87422L38.1567 9.05195L38.8317 9.2173L39.4695 9.39503L40.1194 9.61095L40.7564 9.85271L41.3292 10.1194L41.8518 10.3861L42.4003 10.6909L42.8978 11.0208L43.3935 11.4144L43.7607 11.77L44.1937 12.1893L44.561 12.6463L44.9053 13.1165L45.4792 14.0714L45.7583 14.6436L45.9785 15.2269L46.1431 15.7984L46.2959 16.37L46.4229 16.9577L46.5377 17.5673L46.6112 18.2409L46.6492 18.9396L46.636 20.9331L46.6073 20.9346ZM35.5996 18.5341L35.5372 17.8105L35.4988 17.455L35.4343 16.8452L35.3837 16.63L35.256 16.071L35.2051 15.8931L35.1419 15.7536L34.9633 15.4105L34.9253 15.3372L34.8615 15.2636L34.7219 15.1108L34.5182 14.9713L34.1997 14.8059L33.7919 14.679L33.2438 14.5394L32.6563 14.4505L31.9163 14.3997L31.0877 14.3615L30.4511 14.3359L30.4002 25.0182L31.4199 25.0307L32.12 25.0049L32.7441 24.9418L33.2797 24.8528L33.7126 24.7133L34.1326 24.5481L34.4264 24.4084L34.5917 24.2689L34.7962 24.0148L34.846 23.9516L34.8848 23.8883L35.0759 23.4821L35.1531 23.2919L35.2029 23.1141L35.3424 22.5264L35.407 22.2474L35.4321 21.9681L35.5056 21.1806L35.5437 20.7613L35.582 20.3551L35.5996 18.5341ZM61.9837 24.9484L62.2261 24.9102L62.2003 24.8089L62.0349 24.3901L61.8309 23.8693L61.5884 23.336L56.48 23.3227L56.2508 23.7547L56.0474 24.2117L55.8939 24.5546L55.805 24.8485L56.1497 24.9219L56.6328 24.9601L58.5568 25.0336L58.5442 30.8897L45.4871 30.864L45.4996 25.0851L47.1937 24.9323L47.4993 24.869L47.7665 24.742L48.0223 24.6025L48.2131 24.4115L48.4674 24.1066L48.6966 23.7517L48.9391 23.2434L52.9136 14.2374H49.094L49.1066 8.33063L65.1716 8.35628L71.5289 23.1414L71.7449 23.5732L71.9482 23.903L72.19 24.197L72.445 24.4262L72.7513 24.6039L73.1333 24.7816L73.5401 24.9212L75.1201 25.2768L75.1072 30.9036L59.4252 30.8911L59.4377 25.0351L61.4255 24.9719L61.9837 24.9484ZM59.5381 18.0639L59.0285 16.9333L58.5442 18.0639H59.5381Z" fill="white"/>
<path fill-rule="evenodd" clip-rule="evenodd" d="M113.893 29.4808L100.836 29.4684V26.2546H101.355L101.789 26.2288L102.193 26.1782L102.525 26.1275L102.855 26.0387L103.121 25.9652L103.375 25.8631L103.553 25.7234L103.63 25.6221L103.743 25.4951L103.817 25.3298L103.89 25.1395L103.916 24.9361L103.989 24.72L104.028 24.4784V24.2117L104.053 13.478L97.4729 29.4573H91.7699L85.5087 13.453L85.4958 24.1985V24.4924L85.5331 24.7458L85.5718 24.9874L85.6364 25.1784L85.7103 25.3943L85.7834 25.5471L85.8609 25.6868L85.9613 25.7882L86.1134 25.8902L86.3301 25.9792L86.5969 26.0525L86.9269 26.126L87.2942 26.1768L87.6866 26.2017L88.1701 26.2399H88.6909L88.678 29.4412L77.5 29.4281V26.2274H78.0208L78.4649 26.2017L78.8709 26.1768L79.2267 26.1128L79.5323 26.0394L79.7862 25.9659L79.9642 25.8925L80.1162 25.7779L80.231 25.7044L80.3314 25.6031L80.4462 25.4377L80.4835 25.26L80.561 25.0441V24.803L80.5983 24.5093V24.1918L80.6112 14.9574V14.6145L80.5739 14.297V14.0033L80.4964 13.7622L80.4728 13.5463L80.3566 13.3935L80.2432 13.2663L80.1413 13.1776L80.0266 13.104L79.8372 13.0535L79.5832 12.9645L79.2891 12.9138L78.9218 12.8881L78.5144 12.8374L78.0445 12.8117H77.5222V9.58984L90.366 9.6024L95.4578 22.1637L100.475 9.61405L113.901 9.63988V12.8404H113.343L112.835 12.891L112.391 12.955L111.983 13.0284L111.616 13.1019L111.322 13.2039L111.093 13.3436L110.915 13.4706L110.802 13.5441L110.698 13.6587L110.584 13.7857L110.546 13.9511L110.473 14.1288V14.3447L110.434 14.5608V14.8024L110.421 24.2146V24.5086L110.461 24.7752L110.535 24.9912L110.561 25.1945L110.637 25.3848L110.711 25.512L110.825 25.6515L110.888 25.725L111.08 25.8646L111.334 25.9666L111.628 26.0401L111.995 26.1289L112.363 26.1797L112.807 26.2304L113.327 26.2561H113.874L113.893 29.4808Z" fill="#2B2A29"/>
<path fill-rule="evenodd" clip-rule="evenodd" d="M172.221 19.614L172.172 20.884L171.982 22.0777L171.726 23.1701L171.384 24.1985L170.9 25.1535L170.342 26.0048L169.645 26.7674L168.868 27.4535L167.98 28.0889L167.026 28.609L165.924 29.0534L164.743 29.3965L163.421 29.6763L162.012 29.8915L160.511 29.9937L158.887 30.0312H158.086L157.311 29.9679L156.576 29.9173L155.842 29.8276L155.143 29.7263L154.482 29.6117L153.821 29.4464L153.2 29.2936L152.575 29.1033L152.017 28.8873L151.433 28.6714L150.926 28.4297L150.403 28.1359L149.934 27.8692L149.45 27.552L149.02 27.2213L148.574 26.8782L148.207 26.4845L147.812 26.1032L147.484 25.6838L147.152 25.2776L146.898 24.8332L146.604 24.3764L146.389 23.8929L146.161 23.4228L146.02 22.9153L145.842 22.3812L145.728 21.8478L145.627 21.327L145.59 20.7393L145.525 20.1516V18.9579L145.599 18.3704L145.638 17.7827L145.751 17.195L145.865 16.6609L146.056 16.1277L146.208 15.6067L146.424 15.1241L146.654 14.6541L146.948 14.1715L147.214 13.7306L147.544 13.2988L147.874 12.905L148.282 12.5377L148.649 12.1704L149.09 11.8275L149.535 11.4851L150.056 11.167L150.525 10.8732L151.084 10.6191L151.607 10.3524L152.19 10.1106L152.774 9.90798L153.409 9.73007L154.033 9.5649L154.654 9.4121L155.353 9.31006L156.014 9.20855L156.749 9.1352L157.483 9.08445L158.218 9.03369H159.805L160.579 9.097L161.341 9.14757L162.076 9.23724L162.776 9.33857L163.472 9.45317L164.134 9.61781L164.795 9.78298L165.379 9.96089L166.013 10.1768L166.561 10.4177L167.107 10.6851L167.628 10.9518L168.136 11.2566L168.618 11.5748L169.05 11.9177L169.457 12.2608L169.786 12.642L170.153 13.0093L170.447 13.4155L170.741 13.835L170.996 14.2669L171.211 14.7077L171.428 15.1903L171.606 15.6978L171.797 16.193L171.935 16.7271L172.037 17.2861L172.111 17.8451L172.176 18.4328L172.213 19.0424V19.6016L172.221 19.614ZM164.168 19.5758V18.6208L164.144 18.1889L164.107 17.7481L164.068 17.3162L164.029 16.9224L163.966 16.5551L163.892 16.1878L163.819 15.8324L163.756 15.4893L163.641 15.172L163.539 14.8546L163.424 14.5608L163.285 14.2941L163.132 14.0275L162.993 13.7857L162.699 13.3451L162.332 12.9638L161.927 12.6456L161.457 12.3791L160.898 12.163L160.31 11.9978L159.689 11.9243L158.989 11.8987L158.328 11.9119L157.731 11.9853L157.186 12.1506L156.664 12.3284L156.195 12.5951L155.788 12.8888L155.381 13.2561L155.038 13.6499L154.936 13.8915L154.784 14.1582L154.669 14.4249L154.556 14.7039L154.441 15.0346L154.378 15.3519L154.264 15.695L154.19 16.0381L154.117 16.4053L154.043 16.799L154.005 17.2052L153.927 17.6247L153.889 18.0435V18.5011L153.84 18.9418V19.9328L153.878 20.4029V20.8606L153.903 21.3014L153.976 21.7332L154.015 22.1271L154.079 22.5207L154.152 22.902L154.225 23.2451L154.327 23.5882L154.401 23.9054L154.503 24.2227L154.617 24.5166L154.719 24.7833L154.871 25.05L154.974 25.2915L155.304 25.7492L155.71 26.1165L156.116 26.4596L156.586 26.7534L157.108 26.9693L157.654 27.1346L158.238 27.2485L158.899 27.2742L159.574 27.2485L160.196 27.175L160.781 27.0222L161.302 26.8063L161.783 26.5396L162.215 26.1965L162.597 25.8029L162.927 25.3328L163.079 25.1167L163.219 24.85L163.37 24.6217L163.485 24.3278L163.599 24.034L163.701 23.7166L163.774 23.3735L163.848 23.0173L163.925 22.65L163.999 22.2562L164.039 21.8625L164.076 21.4307L164.114 20.9899L164.153 20.5322L164.165 20.0621L164.168 19.5758Z" fill="#2B2A29"/>
<path fill-rule="evenodd" clip-rule="evenodd" d="M45.2235 19.4085V20.044L45.1851 20.6794L45.1119 21.2671L44.9978 21.8548L44.8841 22.4138L44.7694 22.947L44.5793 23.4421L44.4014 23.9504L44.2105 24.3912L43.9562 24.8482L43.6897 25.2676L43.4354 25.6613L43.1313 26.0426L42.8009 26.4099L42.4709 26.7271L42.1036 27.0453L41.6976 27.3502L41.2148 27.6168L40.732 27.8833L40.2245 28.15L39.7037 28.3536L39.1197 28.5688L38.5225 28.7465L37.8995 28.8993L37.2385 29.0388L36.5401 29.166L35.8055 29.268L35.0709 29.3416L34.2951 29.4151L33.4827 29.4664L32.6444 29.4915L31.7549 29.4789L18.7734 29.4282L18.7864 26.2144H19.3072L19.7899 26.1887L20.1963 26.1631L20.5525 26.1123L20.8954 26.0388L21.1892 25.9655L21.4062 25.8919L21.5583 25.778L21.6314 25.7047L21.7337 25.6025L21.8072 25.4373L21.8807 25.2596L21.9194 25.0435L21.993 24.8019L22.031 24.5079V24.1907L22.0819 14.9562V14.6131L22.0428 14.2959L21.9804 14.0019L21.9417 13.7604L21.8682 13.5575L21.7946 13.3924L21.6931 13.2652L21.6199 13.1762L21.4811 13.1029L21.2519 13.0514L20.9578 12.9625L20.6275 12.9119L20.2602 12.8861L19.8531 12.8355L19.3828 12.7973H18.862L18.8753 9.5835L31.3876 9.64662H32.3015L33.1904 9.68482L34.029 9.73558L34.8417 9.82435L35.6165 9.89788L36.3783 10.0125L37.077 10.1138L37.7754 10.2792L38.4365 10.4443L39.0337 10.6097L39.618 10.7874L40.1635 11.0033L40.6843 11.2444L41.1546 11.4861L41.6373 11.7526L42.0441 12.0193L42.4379 12.3491L42.7676 12.6673L43.1348 13.0104L43.429 13.3776L43.7227 13.7839L43.9767 14.2033L44.231 14.6352L44.4469 15.0796L44.6381 15.5622L44.7769 16.0706L44.9164 16.6038L45.0308 17.1246L45.1331 17.6836L45.2066 18.2713L45.2321 18.8811V19.4145L45.2235 19.4085ZM36.8787 19.269V18.3919L36.8536 17.9982L36.8145 17.5918L36.7765 17.2245L36.7381 16.8816L36.7133 16.5385L36.6398 16.2211L36.5663 15.9273L36.5024 15.6336L36.4289 15.3669L36.3145 15.1002L36.2123 14.8843L36.0986 14.6682L35.997 14.4905L35.8442 14.3002L35.5505 13.9829L35.1441 13.7162L34.6742 13.4745L34.1143 13.2844L33.4533 13.119L32.7546 13.0177L31.9547 12.9537L31.1032 12.9288L29.0838 12.8398L29.0106 26.2659H31.4116L32.1742 26.2533L32.8722 26.18L33.5458 26.0654L34.1333 25.8876L34.6541 25.6715L35.1237 25.4423L35.4909 25.1251L35.7958 24.7827L35.9354 24.5917L36.0491 24.3883L36.1638 24.1473L36.2775 23.9057L36.3916 23.6118L36.4554 23.3451L36.529 23.0278L36.6025 22.7104L36.6757 22.3675L36.7141 22.0002L36.7514 21.6064L36.7905 21.2002L36.841 20.7807L36.8794 20.323L36.8787 19.269Z" fill="#2B2A29"/>
<path fill-rule="evenodd" clip-rule="evenodd" d="M73.7185 29.4684L60.775 29.4559L60.7883 26.2421L61.487 26.2171L62.109 26.1915L62.6298 26.118L63.0243 25.9908L63.3543 25.8513L63.5824 25.6985L63.7223 25.4826L63.7603 25.2674V25.1651L63.6972 24.9492L63.5824 24.6554L63.4687 24.2881L63.2908 23.8048L63.0749 23.2458L62.7811 22.6111L62.4508 21.8993L55.6806 21.8868L55.3503 22.5215L55.0461 23.0805L54.8295 23.588L54.6523 24.0075L54.5375 24.3748L54.4238 24.6922L54.3503 24.9338V25.0991L54.3887 25.3283L54.5407 25.5692L54.7567 25.7602L55.0863 25.913L55.4536 26.0525L55.9611 26.154L56.5583 26.2179L57.2197 26.2428L57.2058 29.4566L46.8789 29.4309V26.2304L47.4381 26.1671L47.9456 26.0658L48.4288 25.8624L48.8696 25.5957L49.2369 25.2526L49.6042 24.7957L49.8979 24.3256L50.1917 23.7379L54.993 12.8139L50.4711 12.8008V9.58984L64.2657 9.61477L70.274 23.6006L70.528 24.1339L70.8221 24.6165L71.1894 25.0351L71.5961 25.4164L72.0782 25.7103L72.5857 25.9512L73.1446 26.1289L73.7324 26.2686L73.7185 29.4684ZM61.5978 19.3195L59.006 13.4516L56.5293 19.3195H61.5978Z" fill="#2B2A29"/>
<path fill-rule="evenodd" clip-rule="evenodd" d="M143.318 29.4686H136.764L136.32 29.4429L135.887 29.354L135.446 29.2519L135.04 29.0616L134.632 28.8457L134.265 28.6165L133.898 28.2991L133.568 27.9429L133.274 27.5998L132.98 27.2062L132.726 26.7741L132.509 26.3547L132.318 25.8721L132.142 25.3771L132.028 24.8437L131.913 24.2847V24.1193L131.889 23.9665V23.7763L131.851 23.6235L131.81 23.4332L131.773 23.2555L131.7 23.0652L131.66 22.8751L131.623 22.5569L131.56 22.2632L131.483 21.9692L131.409 21.7276L131.336 21.5497L131.234 21.3595L131.121 21.2068L130.98 21.0922L130.827 20.9651L130.613 20.8512L130.347 20.7777L130.053 20.7271L129.686 20.7013L129.318 20.6756L128.912 20.6507H128.48L126.6 20.6374V24.5116L126.626 24.8055V25.0722L126.663 25.3138L126.737 25.5297L126.776 25.6825L126.849 25.8222L126.923 25.8955L127.1 25.9691L127.317 26.0198L127.584 26.083L127.914 26.1335L128.318 26.1843L128.751 26.2099L129.235 26.2358H129.78V29.4496L116.469 29.437V26.2232H116.951L117.357 26.1983L117.763 26.1725L118.13 26.1219L118.424 26.0711L118.641 26.0205L118.856 25.9698L118.972 25.8808L119.086 25.7795L119.198 25.6525L119.302 25.4615L119.376 25.2713L119.449 25.0677L119.523 24.801L119.561 24.5073V24.1898L119.575 14.9555V14.6124L119.535 14.295L119.462 14.0013L119.425 13.7595L119.351 13.5436L119.287 13.3915L119.173 13.252L119.096 13.1784L118.957 13.1051L118.729 13.0411L118.475 12.9677L118.181 12.917L117.851 12.8913L117.445 12.8406L117 12.8024H116.493V9.60254L130.757 9.61581L131.859 9.64074L132.888 9.69149L133.839 9.80609L134.729 9.93307L135.541 10.1233L136.303 10.3393L136.976 10.606L137.599 10.8999L138.108 11.2428L138.589 11.6101L138.996 12.0421L139.29 12.4828L139.544 12.9905L139.722 13.5246L139.837 14.1121L139.874 14.7218L139.837 15.1406L139.799 15.5343L139.683 15.9405L139.544 16.3078L139.353 16.6508L139.138 16.9939L138.871 17.3121L138.577 17.6293L138.247 17.9231L137.879 18.1641L137.471 18.3801L137.065 18.5578L136.596 18.7231L136.112 18.8245L135.566 18.898L135.006 18.9486L135.236 19.0119L135.414 19.0375L135.63 19.1111L135.82 19.1616L135.96 19.2352L136.15 19.3239L136.303 19.3975L136.442 19.4995L136.555 19.6134L136.696 19.6869L136.81 19.7882L136.962 19.9028L137.064 20.0049L137.179 20.0784L137.293 20.193L137.357 20.2943L137.686 20.561L138.016 20.855L138.283 21.1979L138.536 21.541L138.714 21.9222L138.906 22.2895L139.044 22.709L139.16 23.1401L139.198 23.5347L139.237 23.9283L139.274 24.3096L139.338 24.6769L139.376 25.0706L139.415 25.4519L139.488 25.8457L139.526 26.2393H143.199L143.318 29.4686ZM132.991 15.6584L132.928 14.9973L132.698 14.4383L132.369 13.9683L131.861 13.587L131.239 13.2695L130.504 13.0536L129.614 12.9516L128.586 12.9008L126.349 12.8119L126.338 18.0709H128.358L129.46 18.045L130.388 17.9188L131.187 17.7278L131.848 17.4611L132.328 17.143L132.696 16.7237L132.912 16.2159L132.991 15.6584Z" fill="#2B2A29"/>
<path d="M0.308594 50.8959V42.9438H1.87478V50.8951L0.308594 50.8959ZM4.62499 50.8959V44.9274H6.06331V45.5246C6.19556 45.2875 6.38911 45.0901 6.62375 44.9535C6.85632 44.8216 7.12042 44.7555 7.38775 44.762C7.57751 44.7498 7.76774 44.776 7.94711 44.8391C8.12649 44.9022 8.2914 45.0009 8.43169 45.1293C8.69172 45.427 8.82372 45.8151 8.79899 46.2097V50.8966H7.38559V46.8951C7.40949 46.6372 7.3612 46.3778 7.24607 46.1458C7.19253 46.0724 7.12097 46.014 7.03839 45.9762C6.95581 45.9383 6.86492 45.9225 6.7744 45.9299C6.67125 45.9213 6.56777 45.942 6.47562 45.9891C6.38346 46.0362 6.30632 46.1081 6.25287 46.1967C6.11917 46.4776 6.06207 46.7885 6.08752 47.0985V50.8966L4.62499 50.8959ZM13.0029 48.6853V49.0917C12.981 49.2994 13.0117 49.5093 13.0919 49.7022C13.1364 49.7508 13.1921 49.7876 13.2542 49.8098C13.3163 49.8319 13.3828 49.8386 13.4481 49.8291H13.6009V50.8959C13.4361 50.9174 13.2703 50.93 13.1043 50.9339C13.011 50.9431 12.9175 50.9474 12.8238 50.9464C12.4609 50.9903 12.0952 50.8901 11.8055 50.6674C11.5786 50.337 11.4791 49.9356 11.525 49.5375V45.9424H10.9653V44.9274H11.525V43.2893H13.0022V44.9274H13.6009V45.9439H13.0022L13.0029 48.6853ZM17.218 47.148H18.6438V46.8937C18.6658 46.6045 18.6087 46.3146 18.4786 46.0554C18.4148 45.9693 18.3292 45.9017 18.2307 45.8592C18.1323 45.8168 18.0244 45.8013 17.918 45.814C17.8138 45.8054 17.7092 45.8227 17.6136 45.865C17.518 45.9072 17.4345 45.9726 17.3708 46.0554C17.2375 46.3135 17.1801 46.6043 17.2054 46.8937V46.9826C17.204 47.0465 17.218 47.098 17.218 47.148ZM18.682 48.8499H20.0572C20.0572 48.8756 20.0704 48.9137 20.0704 48.9643V49.0784C20.0955 49.3499 20.0631 49.6237 19.9754 49.8819C19.8877 50.14 19.7465 50.3769 19.5613 50.577C19.0931 50.937 18.5072 51.109 17.9187 51.0594C17.5823 51.066 17.2472 51.0189 16.9257 50.9199C16.6752 50.8307 16.4517 50.6789 16.2763 50.4791C16.0655 50.2295 15.9171 49.9336 15.8435 49.6154C15.7352 48.9908 15.6925 48.3564 15.7158 47.7229C15.6979 47.1993 15.7361 46.6753 15.8303 46.1598C15.887 45.8752 16.0132 45.6092 16.1975 45.385C16.394 45.1732 16.6388 45.0118 16.911 44.9148C17.248 44.8063 17.6007 44.7546 17.9547 44.762C18.2978 44.7518 18.6396 44.8082 18.9612 44.9281C19.2351 45.0328 19.4765 45.2078 19.6612 45.4356C19.8335 45.6549 19.9513 45.912 20.005 46.1856C20.0845 46.6682 20.1186 47.1569 20.107 47.6458V48.1028H17.2289C17.2187 48.1488 17.2146 48.1959 17.2166 48.243V48.4841C17.1881 48.8891 17.2443 49.2957 17.3817 49.6778C17.4274 49.7863 17.506 49.8777 17.6065 49.9392C17.7069 50.0008 17.824 50.0293 17.9415 50.0207C18.0532 50.0297 18.1655 50.0088 18.2663 49.9597C18.367 49.9106 18.4527 49.8352 18.5145 49.7416C18.6475 49.4644 18.7053 49.1565 18.682 48.8499ZM22.6296 50.8951V44.9274H24.0305V45.8926C24.1771 45.558 24.3994 45.2618 24.6799 45.0278C24.9175 44.8479 25.2091 44.7541 25.507 44.7613V46.4389C25.4563 46.4389 25.4048 46.4249 25.3416 46.4249H25.1508C24.8774 46.4129 24.6092 46.5037 24.3992 46.6792C24.307 46.7728 24.2348 46.8843 24.1867 47.0067C24.1386 47.129 24.1157 47.2598 24.1194 47.3912V50.8966L22.6296 50.8951ZM27.799 50.8951V44.9274H29.238V45.5246C29.3741 45.2904 29.5667 45.0938 29.7985 44.9535C30.0322 44.8246 30.2955 44.7587 30.5625 44.762C30.9495 44.7402 31.3294 44.8722 31.6195 45.1293C31.8758 45.4286 32.0037 45.8166 31.9757 46.2097V50.8966H30.5734V46.8951C30.5946 46.6359 30.5416 46.376 30.4206 46.1458C30.3672 46.0725 30.2959 46.014 30.2135 45.9762C30.131 45.9383 30.0402 45.9225 29.9498 45.9299C29.8466 45.9213 29.7429 45.942 29.6507 45.9891C29.5584 46.0362 29.481 46.1081 29.4274 46.1967C29.3057 46.4811 29.2533 46.7899 29.2746 47.0985V50.8966L27.799 50.8951ZM37.4117 47.7699C37.0045 47.9364 36.6296 48.173 36.3039 48.4686C36.2068 48.5641 36.1307 48.6787 36.0801 48.8051C36.0295 48.9315 36.0057 49.0671 36.0101 49.2032C35.9931 49.4108 36.0469 49.6178 36.1629 49.7908C36.2235 49.8575 36.2985 49.9097 36.3823 49.9428C36.4661 49.976 36.5564 49.9893 36.6463 49.9819C36.7616 49.9849 36.8755 49.9569 36.9762 49.9009C37.077 49.8448 37.161 49.7626 37.2193 49.6631C37.3647 49.3667 37.4305 49.0377 37.4103 48.7082L37.4117 47.7699ZM37.616 50.8951C37.5831 50.8306 37.5584 50.762 37.5424 50.6914C37.5115 50.5704 37.4869 50.4478 37.4689 50.3241C37.3182 50.5533 37.1124 50.7411 36.8703 50.87C36.6101 51.0019 36.3214 51.0673 36.0299 51.0609C35.8178 51.0724 35.6059 51.0364 35.4097 50.955C35.2135 50.8737 35.0381 50.7492 34.8964 50.591C34.6126 50.2309 34.4722 49.7784 34.5021 49.3209C34.4753 48.9009 34.602 48.4853 34.8589 48.1519C35.2479 47.7571 35.7229 47.4575 36.2467 47.2764C36.3201 47.2374 36.4119 47.2031 36.5404 47.1487C37.1134 46.9202 37.4058 46.6411 37.4058 46.3363C37.4103 46.2567 37.3979 46.1769 37.3694 46.1024C37.3409 46.028 37.2969 45.9603 37.2404 45.9041C37.1033 45.796 36.9314 45.7423 36.7571 45.7523C36.6513 45.743 36.5448 45.755 36.4438 45.7878C36.3428 45.8207 36.2496 45.8734 36.1696 45.9432C36.0294 46.1237 35.9614 46.3497 35.9786 46.5777V46.6924H34.5526C34.5303 46.4256 34.5655 46.1573 34.6556 45.9051C34.7457 45.653 34.8885 45.4227 35.0749 45.2305C35.5636 44.8846 36.1591 44.7233 36.7557 44.7746C37.3268 44.7201 37.8989 44.8682 38.3717 45.1932C38.5446 45.3945 38.6745 45.6291 38.7533 45.8825C38.8322 46.136 38.8583 46.4027 38.8301 46.6666V50.0325C38.826 50.1867 38.8434 50.3407 38.8816 50.4902C38.9179 50.6326 38.9738 50.7695 39.0476 50.8966L37.616 50.8951ZM43.0027 48.6846V49.091C42.9808 49.2987 43.0112 49.5086 43.0914 49.7014C43.1369 49.7491 43.1928 49.7852 43.2548 49.8073C43.3168 49.8293 43.3832 49.8366 43.4485 49.8284H43.6013V50.8951C43.4408 50.9171 43.279 50.9296 43.1171 50.9332C43.0194 50.9425 42.9214 50.9467 42.8233 50.9457C42.4607 50.9872 42.096 50.8873 41.8052 50.6667C41.5839 50.3341 41.4891 49.9333 41.5378 49.5368V45.9417H40.9648V44.9274H41.5378V43.2893H43.0027V44.9274H43.6006V45.9439H43.0027V48.6846ZM45.8924 44.1756V42.9438H47.344V44.1766L45.8924 44.1756ZM45.8924 50.8944V44.9274H47.344V50.8973L45.8924 50.8944ZM51.3166 47.8456V47.9851C51.2757 48.557 51.3273 49.132 51.4694 49.6875C51.5195 49.7902 51.6005 49.8746 51.7009 49.9292C51.8014 49.9838 51.9163 50.0061 52.0298 49.9923C52.1461 50.01 52.265 49.9911 52.3702 49.9385C52.4754 49.8859 52.5619 49.8018 52.6175 49.6982C52.7645 49.2084 52.8164 48.6953 52.7703 48.186V47.6017C52.8076 47.1053 52.7559 46.6064 52.6175 46.1282C52.5632 46.0263 52.4797 45.9428 52.3776 45.8886C52.2755 45.8345 52.1595 45.812 52.0445 45.8241C51.9324 45.812 51.8193 45.8317 51.718 45.8811C51.6166 45.9305 51.5311 46.0074 51.4715 46.1031C51.3335 46.5332 51.2816 46.9866 51.3187 47.4367L51.3166 47.8456ZM49.8137 47.9095C49.7333 47.053 49.906 46.192 50.3103 45.4328C50.5241 45.1903 50.7928 45.0026 51.094 44.8854C51.3953 44.7682 51.7202 44.7249 52.0417 44.7591C52.365 44.7251 52.6919 44.7683 52.9952 44.8854C53.2986 45.0025 53.5697 45.1902 53.7863 45.4328C54.4314 47.0211 54.4314 48.7982 53.7863 50.3865C53.5698 50.6291 53.2986 50.8169 52.9952 50.9339C52.6919 51.0509 52.365 51.0937 52.0417 51.0594C51.7203 51.0939 51.3953 51.051 51.094 50.9339C50.7928 50.8168 50.5241 50.629 50.3103 50.3865C49.9061 49.6274 49.7334 48.7668 49.8137 47.9105V47.9095ZM56.7533 50.8944V44.9274H58.1924V45.5246C58.328 45.2903 58.5205 45.0938 58.7521 44.9535C58.9859 44.8246 59.2491 44.7587 59.5161 44.762C59.9029 44.7398 60.2828 44.8719 60.5724 45.1293C60.8293 45.4283 60.9575 45.8165 60.9293 46.2097V50.8966H59.5285V46.8951C59.5497 46.6359 59.4967 46.376 59.3757 46.1458C59.3223 46.0725 59.251 46.014 59.1685 45.9762C59.0861 45.9383 58.9953 45.9225 58.9049 45.9299C58.8018 45.9214 58.6982 45.942 58.6061 45.9891C58.514 46.0362 58.4369 46.1082 58.3834 46.1967C58.2613 46.481 58.2089 46.7899 58.2306 47.0985V50.8966L56.7533 50.8944ZM66.3668 47.7692C65.9596 47.9358 65.5847 48.1723 65.259 48.4679C65.1619 48.5634 65.0857 48.6779 65.0351 48.8044C64.9846 48.9308 64.9607 49.0664 64.9652 49.2025C64.9482 49.4101 65.0024 49.6172 65.1187 49.79C65.1792 49.8568 65.2542 49.909 65.3381 49.9421C65.4219 49.9752 65.5122 49.9886 65.602 49.9812C65.7173 49.9842 65.8312 49.9562 65.932 49.9002C66.0328 49.8441 66.1168 49.7619 66.175 49.6623C66.3204 49.3659 66.3862 49.037 66.366 48.7075L66.3668 47.7692ZM66.5701 50.8944C66.5373 50.8299 66.5128 50.7613 66.4968 50.6907C66.4658 50.5696 66.4412 50.447 66.4232 50.3234C66.2726 50.5526 66.0668 50.7405 65.8246 50.8693C65.5644 51.0011 65.2758 51.0665 64.9842 51.0601C64.7721 51.0717 64.5602 51.0357 64.3641 50.9543C64.1679 50.8729 63.9924 50.7485 63.8508 50.5903C63.5722 50.2274 63.4325 49.777 63.4564 49.3202C63.4295 48.9003 63.556 48.4847 63.8126 48.1512C64.2015 47.7564 64.6764 47.4568 65.2001 47.2757C65.2736 47.2367 65.3655 47.2023 65.4941 47.148C66.0671 46.9195 66.3594 46.6404 66.3594 46.3356C66.3639 46.256 66.3515 46.1761 66.323 46.1017C66.2945 46.0272 66.2506 45.9596 66.1941 45.9033C66.0567 45.7952 65.8845 45.7411 65.71 45.7513C65.6042 45.7418 65.4977 45.7539 65.3967 45.7868C65.2957 45.8196 65.2023 45.8726 65.1223 45.9424C64.9821 46.123 64.914 46.349 64.9313 46.577V46.6917H63.5048C63.4827 46.4249 63.5179 46.1565 63.6079 45.9044C63.698 45.6523 63.8409 45.4221 64.0271 45.2297C64.5158 44.8839 65.1113 44.7225 65.7079 44.7738C66.279 44.7192 66.8511 44.8673 67.3239 45.1924C67.497 45.3937 67.6271 45.6284 67.7061 45.8818C67.785 46.1353 67.8112 46.402 67.783 46.6659V50.0318C67.779 50.1859 67.7961 50.3399 67.8338 50.4895C67.8703 50.6318 67.9261 50.7687 67.9997 50.8959L66.5701 50.8944ZM70.4032 50.8944V42.9438H71.8541V50.8951L70.4032 50.8944ZM74.503 50.8944V42.9438H75.9671V50.8951L74.503 50.8944ZM78.9598 52.8503V51.822H79.189C79.3469 51.8336 79.505 51.8028 79.6472 51.733C79.694 51.6978 79.7314 51.6517 79.7559 51.5985C79.7804 51.5453 79.7913 51.4866 79.7876 51.4281C79.7876 51.3767 79.7743 51.3263 79.7743 51.2624C79.7652 51.2015 79.7481 51.1418 79.7236 51.0852L78.1075 44.9241H79.6502L80.5317 49.2305L81.3721 44.9241H82.8619L81.2067 51.4622C81.1351 51.8924 80.9354 52.2907 80.6337 52.6057C80.2877 52.8211 79.8816 52.9195 79.4754 52.8858H79.2205C79.1375 52.877 79.0487 52.8606 78.9598 52.8518V52.8503ZM92.9902 50.8944V44.2512H91.1824V42.9438H96.3642V44.252H94.5557V50.8951L92.9902 50.8944ZM97.765 50.8944V44.9274H99.1651V45.8926C99.3031 45.5566 99.5215 45.2595 99.8012 45.0278C100.039 44.8478 100.331 44.7539 100.629 44.7613V46.4389C100.579 46.4389 100.527 46.4249 100.476 46.4249H100.272C99.9988 46.4134 99.731 46.5041 99.5208 46.6792C99.4287 46.7729 99.3563 46.8844 99.3082 47.0067C99.2601 47.129 99.2372 47.2598 99.2408 47.3912V50.8966L97.765 50.8944ZM107.085 44.9241V50.8944H105.648V50.2979C105.516 50.5351 105.322 50.7322 105.087 50.8686C104.853 50.9973 104.59 51.0629 104.323 51.0594C104.132 51.0728 103.939 51.0472 103.758 50.9841C103.576 50.921 103.409 50.8216 103.267 50.6921C103.01 50.3936 102.882 50.0059 102.91 49.6132V44.9274H104.323V48.827C104.297 49.1097 104.346 49.3943 104.464 49.6527C104.519 49.7274 104.592 49.7867 104.677 49.8245C104.762 49.8622 104.855 49.877 104.948 49.8679C105.048 49.8783 105.15 49.8617 105.241 49.8194C105.333 49.7772 105.412 49.711 105.469 49.6279C105.594 49.349 105.647 49.043 105.622 48.7384V44.9274L107.085 44.9241ZM109.518 48.9131H110.84V49.0784C110.817 49.3345 110.875 49.5912 111.005 49.813C111.144 49.9393 111.321 50.0144 111.508 50.026C111.695 50.0377 111.881 49.985 112.034 49.8768C112.092 49.8217 112.139 49.7548 112.169 49.6803C112.2 49.6058 112.214 49.5255 112.211 49.445C112.211 49.2158 111.982 48.949 111.511 48.6566C111.384 48.5831 111.295 48.518 111.231 48.4798L111.158 48.4414C110.088 47.7428 109.554 47.0569 109.554 46.3965C109.537 46.1664 109.576 45.9354 109.667 45.7233C109.758 45.5112 109.898 45.3239 110.076 45.177C110.519 44.8687 111.053 44.7209 111.591 44.7577C112.112 44.7181 112.628 44.8818 113.03 45.215C113.202 45.4051 113.333 45.6283 113.416 45.8707C113.5 46.1131 113.533 46.3701 113.514 46.6257V46.7527H112.227V46.6257C112.246 46.3995 112.183 46.1738 112.05 45.9901C111.979 45.9177 111.894 45.862 111.799 45.8269C111.704 45.7919 111.603 45.7784 111.503 45.7875C111.342 45.7808 111.184 45.8301 111.057 45.927C111.004 45.9726 110.962 46.0289 110.934 46.0924C110.905 46.1558 110.891 46.2248 110.891 46.2943C110.89 46.4405 110.945 46.5818 111.044 46.6889C111.231 46.8924 111.451 47.0636 111.693 47.1957C111.767 47.2339 111.872 47.3102 112.025 47.3983C113.082 48.0595 113.617 48.7205 113.617 49.3933C113.629 49.6243 113.588 49.8551 113.495 50.0669C113.402 50.2788 113.26 50.4658 113.082 50.6129C112.633 50.9311 112.089 51.0866 111.539 51.0537C110.984 51.0969 110.433 50.9289 109.997 50.5834C109.817 50.3903 109.68 50.1615 109.594 49.912C109.509 49.6624 109.477 49.3979 109.5 49.1351C109.499 49.0967 109.504 49.0582 109.513 49.021L109.518 48.9131ZM117.616 48.6839V49.0902C117.594 49.298 117.624 49.5079 117.705 49.7007C117.749 49.7494 117.805 49.7862 117.867 49.8083C117.93 49.8305 117.996 49.8372 118.062 49.8277H118.214V50.8944C118.05 50.9169 117.884 50.9294 117.718 50.9324C117.625 50.9419 117.531 50.9462 117.437 50.945C117.074 50.9866 116.71 50.8867 116.419 50.6659C116.198 50.3333 116.103 49.9325 116.152 49.5361V45.941H115.578V44.9274H116.152V43.2893H117.616V44.9274H118.214V45.9439H117.616V48.6839ZM121.831 47.1465H123.257V46.8922C123.285 46.6027 123.228 46.311 123.091 46.054C123.028 45.9678 122.942 45.9002 122.844 45.8578C122.745 45.8153 122.637 45.7994 122.531 45.8122C122.427 45.8035 122.322 45.8213 122.226 45.8635C122.131 45.9058 122.047 45.9711 121.983 46.054C121.85 46.312 121.792 46.6028 121.818 46.8922V46.9812C121.828 47.0361 121.832 47.0921 121.831 47.148V47.1465ZM123.308 48.8485H124.683V49.0777C124.708 49.3493 124.676 49.6229 124.588 49.8811C124.5 50.1393 124.359 50.3763 124.173 50.5763C123.705 50.9364 123.119 51.1083 122.531 51.0587C122.199 51.0653 121.867 51.0182 121.55 50.9192C121.296 50.83 121.069 50.6783 120.889 50.4783C120.678 50.2288 120.53 49.9329 120.456 49.6146C120.355 48.9892 120.312 48.3556 120.329 47.7222C120.311 47.1986 120.349 46.6745 120.443 46.1591C120.5 45.8745 120.626 45.6081 120.81 45.384C121.007 45.1721 121.251 45.011 121.524 44.9141C121.861 44.8064 122.214 44.7548 122.568 44.7613C122.911 44.7511 123.252 44.8075 123.574 44.9274C123.851 45.0319 124.097 45.2067 124.286 45.4349C124.449 45.6581 124.562 45.914 124.617 46.1849C124.697 46.6674 124.731 47.1562 124.719 47.6451V48.1021H121.842C121.831 48.1481 121.827 48.1952 121.829 48.2423V48.4834C121.801 48.8884 121.857 49.295 121.995 49.677C122.042 49.7846 122.12 49.875 122.221 49.9364C122.321 49.9977 122.437 50.0268 122.554 50.02C122.666 50.0306 122.779 50.0104 122.88 49.9611C122.981 49.9119 123.067 49.8356 123.127 49.7409C123.266 49.4655 123.328 49.1582 123.308 48.8506V48.8485ZM128.554 47.8201C128.516 48.404 128.563 48.9899 128.694 49.5601C128.73 49.668 128.801 49.7612 128.895 49.8252C128.989 49.8892 129.102 49.9209 129.215 49.9152C129.335 49.9267 129.456 49.9024 129.562 49.846C129.669 49.7896 129.756 49.7034 129.814 49.5978C129.958 49.1777 130.014 48.7326 129.979 48.29C130.023 47.6244 129.967 46.9562 129.814 46.3069C129.77 46.1867 129.687 46.0844 129.579 46.0156C129.471 45.9468 129.343 45.9152 129.215 45.9256C129.105 45.9176 128.994 45.9451 128.9 46.0045C128.807 46.0639 128.734 46.1517 128.694 46.2552C128.564 46.7665 128.517 47.2954 128.554 47.8216V47.8201ZM130.018 50.2714C129.909 50.512 129.732 50.7151 129.509 50.8553C129.274 50.9943 129.004 51.0647 128.731 51.0587C128.47 51.0807 128.209 51.0263 127.978 50.9023C127.748 50.7783 127.558 50.5902 127.433 50.3603C127.127 49.5908 127.002 48.7615 127.065 47.936C127.003 47.0902 127.125 46.2412 127.422 45.4467C127.546 45.2223 127.732 45.038 127.957 44.9162C128.183 44.7945 128.439 44.7403 128.695 44.7599C128.955 44.7488 129.214 44.8061 129.445 44.9259C129.656 45.0446 129.828 45.2206 129.942 45.4335V42.9438H131.407V50.8951H130.018L130.018 50.2714ZM140.866 50.8944V42.9438H145.273V44.2391H142.434V46.1203H145.108V47.3904H142.434V50.8959L140.866 50.8944ZM151.575 44.9241V50.8944H150.136V50.2979C150.004 50.5352 149.811 50.7323 149.576 50.8686C149.342 50.9973 149.079 51.0629 148.812 51.0594C148.62 51.0729 148.428 51.0472 148.246 50.9841C148.064 50.921 147.898 50.8217 147.756 50.6921C147.499 50.3935 147.371 50.0058 147.399 49.6132V44.9274H148.8V48.827C148.776 49.1109 148.829 49.396 148.952 49.6527C149.007 49.7274 149.081 49.7867 149.166 49.8245C149.251 49.8622 149.344 49.877 149.436 49.8679C149.537 49.8781 149.638 49.8613 149.73 49.8191C149.822 49.7768 149.9 49.7109 149.958 49.6279C150.071 49.3457 150.119 49.0417 150.098 48.7384V44.9274L151.575 44.9241ZM154.249 50.8944V44.9274H155.649V45.8926C155.787 45.5566 156.006 45.2595 156.286 45.0278C156.523 44.8477 156.815 44.7539 157.113 44.7613V46.4389C157.063 46.4389 157.011 46.4249 156.961 46.4249H156.757C156.484 46.413 156.216 46.5038 156.007 46.6792C155.914 46.7728 155.842 46.8843 155.794 47.0067C155.745 47.129 155.722 47.2597 155.726 47.3912V50.8966L154.249 50.8944ZM159.419 50.8944V44.9274H160.844V45.5246C160.98 45.2903 161.173 45.0938 161.404 44.9535C161.638 44.8246 161.901 44.7587 162.168 44.762C162.36 44.7499 162.552 44.7761 162.734 44.8391C162.915 44.9022 163.082 45.0009 163.225 45.1293C163.482 45.4286 163.61 45.8166 163.582 46.2097V50.8966H162.181V46.8951C162.198 46.6376 162.15 46.3797 162.041 46.1458C161.977 46.0739 161.897 46.0173 161.808 45.9801C161.719 45.9429 161.623 45.9261 161.526 45.931C161.43 45.9358 161.336 45.9621 161.251 46.0081C161.166 46.054 161.092 46.1187 161.035 46.1967C160.913 46.481 160.861 46.7899 160.883 47.0985V50.8966L159.419 50.8944ZM166.23 44.1756V42.9438H167.683V44.1766L166.23 44.1756ZM166.23 50.8944V44.9274H167.683V50.8973L166.23 50.8944ZM171.897 48.6839V49.0902C171.875 49.298 171.906 49.5079 171.986 49.7007C172.03 49.7493 172.086 49.7862 172.148 49.8083C172.21 49.8305 172.277 49.8371 172.342 49.8277H172.495V50.8944C172.33 50.9168 172.165 50.9294 171.998 50.9324C171.905 50.9419 171.812 50.9462 171.718 50.945C171.356 50.9865 170.991 50.8866 170.7 50.6659C170.479 50.3333 170.384 49.9325 170.432 49.5361V45.941H169.859V44.9274H170.432V43.2893H171.897V44.9274H172.496V45.9439H171.897V48.6839ZM178.949 44.9241V50.8944H177.51V50.2979C177.374 50.5324 177.182 50.7287 176.95 50.8686C176.716 50.9973 176.452 51.0629 176.186 51.0594C175.994 51.0729 175.801 51.0476 175.619 50.9845C175.437 50.9213 175.271 50.8217 175.128 50.6921C174.872 50.3936 174.744 50.0058 174.772 49.6132V44.9274H176.172V48.827C176.149 49.1109 176.201 49.396 176.325 49.6527C176.379 49.726 176.45 49.7846 176.533 49.8223C176.615 49.86 176.706 49.8756 176.797 49.8679C176.897 49.881 177 49.8655 177.092 49.823C177.184 49.7805 177.263 49.713 177.318 49.6279C177.443 49.3488 177.495 49.043 177.47 48.7384V44.9274L178.949 44.9241ZM181.61 50.8944V44.9274H183.023V45.8926C183.161 45.5565 183.38 45.2594 183.66 45.0278C183.898 44.8478 184.19 44.7539 184.488 44.7613V46.4389C184.437 46.4389 184.386 46.4249 184.335 46.4249H184.131C183.858 46.413 183.591 46.5038 183.381 46.6792C183.288 46.7728 183.216 46.8843 183.168 47.0067C183.12 47.129 183.096 47.2597 183.1 47.3912V50.8966L181.61 50.8944ZM188.103 47.148H189.53V46.8937C189.558 46.6041 189.501 46.3125 189.365 46.0554C189.301 45.9693 189.215 45.9017 189.117 45.8592C189.019 45.8168 188.911 45.8013 188.804 45.814C188.7 45.8054 188.595 45.8227 188.5 45.865C188.404 45.9072 188.321 45.9726 188.257 46.0554C188.123 46.3134 188.066 46.6042 188.091 46.8937V46.9826C188.101 47.0371 188.106 47.0925 188.105 47.148H188.103ZM189.581 48.8499H190.956V49.0791C190.981 49.3506 190.948 49.6244 190.861 49.8826C190.773 50.1408 190.632 50.3776 190.447 50.5777C189.978 50.9377 189.393 51.1096 188.804 51.0601C188.472 51.0658 188.141 51.0187 187.824 50.9206C187.57 50.8315 187.342 50.6798 187.162 50.4798C186.951 50.2304 186.803 49.9344 186.73 49.6161C186.628 48.9907 186.586 48.357 186.602 47.7237C186.584 47.2 186.622 46.676 186.716 46.1605C186.773 45.8759 186.899 45.6099 187.084 45.3858C187.28 45.1738 187.524 45.0124 187.796 44.9155C188.134 44.8079 188.486 44.7563 188.84 44.7627C189.183 44.7525 189.524 44.809 189.846 44.9288C190.124 45.0332 190.369 45.2081 190.559 45.4363C190.722 45.6597 190.835 45.9155 190.89 46.1863C190.969 46.6689 191.003 47.1577 190.991 47.6465V48.1035H188.114C188.114 48.1542 188.1 48.1923 188.1 48.2438V48.4848C188.072 48.8899 188.129 49.2964 188.267 49.6785C188.315 49.785 188.394 49.8745 188.494 49.9357C188.594 49.9968 188.71 50.0265 188.827 50.0214C188.939 50.0321 189.052 50.0118 189.153 49.9626C189.254 49.9133 189.339 49.8371 189.4 49.7423C189.54 49.4668 189.602 49.1589 189.582 48.8506L189.581 48.8499Z" fill="#2B2A29"/>
</g>
</g>
<defs>
<clipPath id="clip0_2988_4404">
<rect width="191" height="52.89" fill="white"/>
</clipPath>
<clipPath id="clip1_2988_4404">
<rect width="190.992" height="52.89" fill="white" transform="translate(0.00390625)"/>
</clipPath>
</defs>
</svg>
