<svg xmlns="http://www.w3.org/2000/svg" width="77" height="48.001" viewBox="0 0 77 48.001">
  <g id="Group_920" data-name="Group 920" transform="translate(12852 -6165.999)">
    <g id="Group_913" data-name="Group 913" transform="translate(165 -67)">
      <rect id="Rectangle_2025" data-name="Rectangle 2025" width="77" height="48" rx="11" transform="translate(-13017 6233)" fill="#003663"/>
    </g>
    <g id="ms_vrt_pos" transform="translate(-12842.7 6165.999)">
      <rect id="Rectangle_2028" data-name="Rectangle 2028" width="58.4" height="48.001" fill="none"/>
      <g id="Group_912" data-name="Group 912" transform="translate(6.025 6.023)">
        <path id="Path_2339" data-name="Path 2339" d="M363.856,343.427v-2.384a1.414,1.414,0,0,0-1.494-1.51,1.471,1.471,0,0,0-1.335.675,1.4,1.4,0,0,0-1.255-.675,1.256,1.256,0,0,0-1.112.564v-.469h-.826v3.8h.834v-2.106a.888.888,0,0,1,.93-1.009c.548,0,.826.358.826,1v2.114h.834v-2.106a.9.9,0,0,1,.93-1.009c.564,0,.834.358.834,1v2.114Zm4.657-1.9v-1.9h-.826v.461a1.441,1.441,0,0,0-1.2-.556,2,2,0,0,0,0,3.989,1.441,1.441,0,0,0,1.2-.556v.461h.826Zm-3.075,0a1.139,1.139,0,1,1,.31.86,1.15,1.15,0,0,1-.31-.86Zm20.758-2a2.141,2.141,0,0,1,.815.153,1.989,1.989,0,0,1,.648.42,1.925,1.925,0,0,1,.428.633,2.11,2.11,0,0,1,0,1.586,1.924,1.924,0,0,1-.428.633,1.987,1.987,0,0,1-.648.42,2.251,2.251,0,0,1-1.63,0,1.966,1.966,0,0,1-.647-.42,1.942,1.942,0,0,1-.426-.633,2.112,2.112,0,0,1,0-1.586,1.943,1.943,0,0,1,.426-.633,1.968,1.968,0,0,1,.647-.42,2.141,2.141,0,0,1,.815-.153Zm0,.781a1.234,1.234,0,0,0-.472.089,1.117,1.117,0,0,0-.377.25,1.164,1.164,0,0,0-.25.385,1.382,1.382,0,0,0,0,.988,1.163,1.163,0,0,0,.25.385,1.115,1.115,0,0,0,.377.25,1.292,1.292,0,0,0,.944,0,1.139,1.139,0,0,0,.379-.25,1.153,1.153,0,0,0,.252-.385,1.382,1.382,0,0,0,0-.988,1.154,1.154,0,0,0-.252-.385,1.14,1.14,0,0,0-.379-.25,1.234,1.234,0,0,0-.472-.089Zm-13.186,1.218a1.821,1.821,0,0,0-1.8-1.994,2,2,0,0,0,.056,3.989,2.309,2.309,0,0,0,1.557-.532l-.405-.612a1.81,1.81,0,0,1-1.1.4,1.055,1.055,0,0,1-1.136-.93h2.821c.008-.1.016-.206.016-.318Zm-2.829-.334a.978.978,0,0,1,1.009-.922.943.943,0,0,1,.962.922Zm6.309-.6a2.449,2.449,0,0,0-1.184-.326c-.453,0-.723.167-.723.445,0,.254.286.326.644.373l.389.056c.826.119,1.327.469,1.327,1.136,0,.723-.636,1.24-1.732,1.24a2.74,2.74,0,0,1-1.645-.493l.389-.644a2.024,2.024,0,0,0,1.263.4c.564,0,.866-.167.866-.461,0-.215-.215-.334-.667-.4l-.389-.056c-.85-.119-1.311-.5-1.311-1.12,0-.755.62-1.216,1.581-1.216a2.84,2.84,0,0,1,1.55.4Zm3.971-.215H379.11V342.1c0,.381.135.636.548.636a1.526,1.526,0,0,0,.731-.215l.238.707a1.942,1.942,0,0,1-1.033.294c-.977,0-1.319-.524-1.319-1.407v-1.732H377.5v-.755h.771v-1.152h.834v1.152h1.351Zm2.86-.85a1.764,1.764,0,0,1,.588.1l-.254.779a1.346,1.346,0,0,0-.516-.1c-.54,0-.811.35-.811.977v2.13H381.5v-3.8h.818v.461a1.12,1.12,0,0,1,1-.556Zm5.721,3.341a.379.379,0,0,1,.15.03.389.389,0,0,1,.122.081.381.381,0,0,1,.082.121.372.372,0,0,1,0,.293.383.383,0,0,1-.082.12.4.4,0,0,1-.122.082.373.373,0,0,1-.15.03.385.385,0,0,1-.357-.232.372.372,0,0,1,0-.293.382.382,0,0,1,.082-.12.378.378,0,0,1,.123-.081A.391.391,0,0,1,389.042,342.874Zm0,.673a.282.282,0,0,0,.114-.023.3.3,0,0,0,.093-.063.295.295,0,0,0-.093-.479.284.284,0,0,0-.114-.023.3.3,0,0,0-.116.023.29.29,0,0,0-.094.062.295.295,0,0,0,.21.5Zm.022-.472a.16.16,0,0,1,.1.03.1.1,0,0,1,.037.082.1.1,0,0,1-.029.072.139.139,0,0,1-.083.035l.115.133h-.09l-.107-.132h-.034v.132H388.9v-.351Zm-.087.066v.094h.086a.085.085,0,0,0,.047-.012.04.04,0,0,0,.018-.036.039.039,0,0,0-.018-.035.086.086,0,0,0-.047-.012Z" transform="translate(-349.843 -307.576)" fill="#fff"/>
        <g id="Group_911" data-name="Group 911">
          <rect id="Rectangle_2029" data-name="Rectangle 2029" width="12.533" height="22.523" transform="translate(16.909 3.063)" fill="#7375cf"/>
          <path id="Path_2340" data-name="Path 2340" d="M355.458,275.141a14.3,14.3,0,0,1,5.471-11.261,14.324,14.324,0,1,0,0,22.523A14.3,14.3,0,0,1,355.458,275.141Z" transform="translate(-337.753 -260.816)" fill="#eb001b"/>
          <path id="Path_2341" data-name="Path 2341" d="M450.375,318.284v-.461h.186v-.094h-.474v.094h.186v.461Zm.919,0v-.556h-.145l-.167.382-.167-.382h-.145v.556h.1v-.419l.157.362h.106l.157-.362v.42Z" transform="translate(-405.391 -295.084)" fill="#00a2e5"/>
          <path id="Path_2342" data-name="Path 2342" d="M419.175,275.141A14.323,14.323,0,0,1,396,286.4a14.326,14.326,0,0,0,0-22.523,14.323,14.323,0,0,1,23.175,11.261Z" transform="translate(-372.824 -260.817)" fill="#00a2e5"/>
        </g>
      </g>
    </g>
  </g>
</svg>
