<svg xmlns="http://www.w3.org/2000/svg" width="77" height="48" viewBox="0 0 77 48">
  <g id="Group_921" data-name="Group 921" transform="translate(12936 -6166)">
    <g id="Group_908" data-name="Group 908" transform="translate(81 -67)">
      <rect id="Rectangle_2025" data-name="Rectangle 2025" width="77" height="48" rx="11" transform="translate(-13017 6233)" fill="#003663"/>
      <g id="mc_vrt_pos" transform="translate(-13007.759 6233)">
        <rect id="Rectangle_2026" data-name="Rectangle 2026" width="58.519" height="48" fill="none"/>
        <g id="Group_910" data-name="Group 910" transform="translate(6.041 6.042)">
          <path id="Path_2335" data-name="Path 2335" d="M349.828,342.994V340.6a1.418,1.418,0,0,0-1.5-1.515,1.476,1.476,0,0,0-1.339.678,1.4,1.4,0,0,0-1.26-.678,1.26,1.26,0,0,0-1.116.566v-.47h-.829v3.81h.837v-2.112a.891.891,0,0,1,.933-1.012c.55,0,.829.359.829,1v2.12h.837v-2.112a.9.9,0,0,1,.933-1.012c.566,0,.837.359.837,1v2.12Zm12.388-3.81h-1.355v-1.156h-.837v1.156h-.773v.757h.773v1.738c0,.885.343,1.411,1.323,1.411a1.948,1.948,0,0,0,1.036-.295l-.239-.709a1.53,1.53,0,0,1-.733.215c-.414,0-.55-.255-.55-.638v-1.722h1.355Zm7.071-.1a1.124,1.124,0,0,0-1,.558v-.462h-.821v3.81h.829v-2.136c0-.63.271-.98.813-.98a1.35,1.35,0,0,1,.518.1l.255-.781A1.772,1.772,0,0,0,369.287,339.088Zm-10.69.4a2.849,2.849,0,0,0-1.554-.4c-.965,0-1.586.462-1.586,1.22,0,.622.462,1,1.315,1.124l.391.056c.454.064.67.183.67.4,0,.295-.3.462-.869.462a2.029,2.029,0,0,1-1.267-.4l-.391.646a2.749,2.749,0,0,0,1.65.494c1.1,0,1.738-.518,1.738-1.244,0-.67-.5-1.02-1.331-1.14l-.391-.056c-.359-.048-.646-.119-.646-.375,0-.279.271-.446.725-.446a2.457,2.457,0,0,1,1.188.327Zm22.208-.4a1.124,1.124,0,0,0-1,.558v-.462h-.821v3.81h.829v-2.136c0-.63.271-.98.813-.98a1.351,1.351,0,0,1,.518.1l.255-.781A1.773,1.773,0,0,0,380.805,339.088Zm-10.682,2a1.925,1.925,0,0,0,2.033,2,2,2,0,0,0,1.371-.454l-.4-.67a1.675,1.675,0,0,1-1,.343,1.222,1.222,0,0,1,0-2.439,1.675,1.675,0,0,1,1,.343l.4-.67a2,2,0,0,0-1.371-.454,1.925,1.925,0,0,0-2.033,2Zm7.764,0v-1.905h-.829v.462a1.446,1.446,0,0,0-1.2-.558,2,2,0,0,0,0,4,1.446,1.446,0,0,0,1.2-.558v.462h.829Zm-3.085,0a1.143,1.143,0,1,1,.311.863,1.154,1.154,0,0,1-.311-.863Zm-10-2a2,2,0,0,0,.056,4,2.316,2.316,0,0,0,1.562-.534l-.407-.614a1.815,1.815,0,0,1-1.108.4,1.058,1.058,0,0,1-1.14-.933h2.83c.008-.1.016-.207.016-.319a1.827,1.827,0,0,0-1.809-2Zm-.016.741a.946.946,0,0,1,.965.925H363.77a.981.981,0,0,1,1.012-.925Zm20.8,1.259v-3.436h-.829v1.993a1.446,1.446,0,0,0-1.2-.558,2,2,0,0,0,0,4,1.445,1.445,0,0,0,1.2-.558v.462h.829Zm1.382,1.353a.38.38,0,0,1,.15.03.389.389,0,0,1,.123.081.38.38,0,0,1,.083.121.372.372,0,0,1,0,.294.385.385,0,0,1-.083.12.4.4,0,0,1-.123.082.376.376,0,0,1-.15.03.386.386,0,0,1-.358-.232.373.373,0,0,1,0-.294.384.384,0,0,1,.082-.121.379.379,0,0,1,.123-.081.391.391,0,0,1,.152-.03Zm0,.674a.282.282,0,0,0,.114-.023.3.3,0,0,0,.093-.063.3.3,0,0,0,0-.418.294.294,0,0,0-.093-.063.286.286,0,0,0-.114-.023.3.3,0,0,0-.116.023.291.291,0,0,0-.094.063.3.3,0,0,0,.21.5Zm.022-.473a.16.16,0,0,1,.1.03.1.1,0,0,1,.037.082.1.1,0,0,1-.029.072.139.139,0,0,1-.083.035l.115.133h-.09l-.107-.132H386.9v.132h-.075v-.352Zm-.087.066v.094h.086a.085.085,0,0,0,.047-.012.04.04,0,0,0,.018-.036.039.039,0,0,0-.018-.035.086.086,0,0,0-.047-.012Zm-4.4-1.62a1.143,1.143,0,1,1,.311.863A1.154,1.154,0,0,1,382.5,341.089Zm-28,0v-1.905h-.829v.462a1.446,1.446,0,0,0-1.2-.558,2,2,0,0,0,0,4,1.446,1.446,0,0,0,1.2-.558v.462h.829Zm-3.085,0a1.143,1.143,0,1,1,.311.863,1.154,1.154,0,0,1-.311-.863Z" transform="translate(-341.381 -307.077)" fill="#fff"/>
          <g id="Group_909" data-name="Group 909">
            <rect id="Rectangle_2027" data-name="Rectangle 2027" width="12.557" height="22.565" transform="translate(16.94 3.069)" fill="#ff5f00"/>
            <path id="Path_2336" data-name="Path 2336" d="M355.491,275.3a14.326,14.326,0,0,1,5.481-11.283,14.351,14.351,0,1,0,0,22.565A14.326,14.326,0,0,1,355.491,275.3Z" transform="translate(-337.753 -260.949)" fill="#eb001b"/>
            <path id="Path_2337" data-name="Path 2337" d="M419.218,275.3A14.35,14.35,0,0,1,396,286.583a14.353,14.353,0,0,0,0-22.565A14.35,14.35,0,0,1,419.218,275.3Z" transform="translate(-372.781 -260.949)" fill="#f79e1b"/>
            <path id="Path_2338" data-name="Path 2338" d="M450.375,318.417v-.462h.186v-.094h-.474v.094h.186v.462Zm.921,0v-.557h-.145l-.167.383-.167-.383h-.146v.557h.1V318l.157.362h.106l.157-.363v.421Z" transform="translate(-405.308 -295.173)" fill="#f79e1b"/>
          </g>
        </g>
      </g>
    </g>
  </g>
</svg>
