<svg xmlns="http://www.w3.org/2000/svg" width="16.02" height="16.054" viewBox="0 0 16.02 16.054"><defs><style>.a{fill:#353b3b;}</style></defs><g transform="translate(0 0)"><path class="a" d="M16.139,11.782,13.9,9.542a1.49,1.49,0,0,0-2.48.56,1.525,1.525,0,0,1-1.76.96A6.909,6.909,0,0,1,5.5,6.9a1.45,1.45,0,0,1,.96-1.76,1.49,1.49,0,0,0,.56-2.48L4.777.42a1.6,1.6,0,0,0-2.16,0L1.1,1.94c-1.52,1.6.16,5.841,3.921,9.6s8,5.521,9.6,3.921l1.52-1.52A1.6,1.6,0,0,0,16.139,11.782Z" transform="translate(-0.539 0)"/></g></svg>