<svg xmlns="http://www.w3.org/2000/svg" width="77" height="48" viewBox="0 0 77 48">
  <g id="Group_918" data-name="Group 918" transform="translate(12654 -6166)">
    <g id="Path_2350" data-name="Path 2350" transform="translate(-12654 6166)" fill="none">
      <path d="M11,0H66A11,11,0,0,1,77,11V37A11,11,0,0,1,66,48H11A11,11,0,0,1,0,37V11A11,11,0,0,1,11,0Z" stroke="none"/>
      <path d="M 11 1 C 5.485977172851563 1 1 5.485977172851563 1 11 L 1 37 C 1 42.51402282714844 5.485977172851563 47 11 47 L 66 47 C 71.51402282714844 47 76 42.51402282714844 76 37 L 76 11 C 76 5.485977172851563 71.51402282714844 1 66 1 L 11 1 M 11 0 L 66 0 C 72.07513427734375 0 77 4.92486572265625 77 11 L 77 37 C 77 43.07513427734375 72.07513427734375 48 66 48 L 11 48 C 4.92486572265625 48 0 43.07513427734375 0 37 L 0 11 C 0 4.92486572265625 4.92486572265625 0 11 0 Z" stroke="none" fill="#d6d6d6"/>
    </g>
    <g id="layer1" transform="translate(-12643.016 6182.984)">
      <g id="g234" transform="translate(47.629 1.059)">
        <path id="path236" d="M-1.108,0,1.94,6.052l-6.407,6.054Z" transform="translate(4.467)" fill="#008c44"/>
      </g>
      <g id="g238" transform="translate(45.518 1.059)">
        <path id="path240" d="M-1.108,0,1.935,6.052l-6.4,6.054Z" transform="translate(4.467)" fill="#f47920"/>
      </g>
      <g id="g242" transform="translate(0.016 0.016)">
        <path id="path244" d="M0-3.61,3.039-14.558H7.9a4.528,4.528,0,0,1,3.048.736,2.337,2.337,0,0,1,.3,2.421,4.167,4.167,0,0,1-.861,1.662A4,4,0,0,1,8.862-8.693a1.335,1.335,0,0,1,1.024.764,2.85,2.85,0,0,1-.05,1.667l-.37,1.529v.041c-.107.428-.075.657.1.676l-.112.405H6.165c.011-.258.032-.488.053-.681A3.243,3.243,0,0,1,6.3-4.748l.306-1.093a1.612,1.612,0,0,0,.021-1.194c-.145-.235-.468-.35-.979-.35H4.268L3.215-3.61ZM4.951-9.852H6.431a2.165,2.165,0,0,0,1.137-.227,1.31,1.31,0,0,0,.516-.792c.107-.384.081-.651-.073-.8a1.691,1.691,0,0,0-1.1-.229H5.521Z" transform="translate(0 14.558)" fill="#1b3281"/>
      </g>
      <g id="g246" transform="translate(10.602 2.885)">
        <path id="path248" d="M-3.193,0l-2.24,8.078H-8.155l.335-1.183A5.315,5.315,0,0,1-9.284,7.951a3.578,3.578,0,0,1-1.552.347,2.474,2.474,0,0,1-1.148-.244,1.57,1.57,0,0,1-.707-.731,2.085,2.085,0,0,1-.177-1.052,11.726,11.726,0,0,1,.44-2.079L-11.268,0H-8.29L-9.448,4.173a2.466,2.466,0,0,0-.127,1.274c.086.236.315.358.688.358a1.251,1.251,0,0,0,.951-.413,2.876,2.876,0,0,0,.622-1.23L-6.166,0Z" transform="translate(12.874)" fill="#1b3281"/>
      </g>
      <g id="g250" transform="translate(19.202 0.016)">
        <path id="path252" d="M0-3.61,3.035-14.558H7.211a9.945,9.945,0,0,1,2.143.174,2.654,2.654,0,0,1,1.2.562,2.232,2.232,0,0,1,.691,1.275,4.142,4.142,0,0,1-.157,1.8A5.175,5.175,0,0,1,9.3-7.934a5.082,5.082,0,0,1-3.165.972H4.186L3.257-3.61ZM4.925-9.636h1.05a3.053,3.053,0,0,0,1.436-.246,1.407,1.407,0,0,0,.58-.869c.117-.42.087-.713-.09-.877a2.159,2.159,0,0,0-1.3-.246H5.549Z" transform="translate(0 14.558)" fill="#1b3281"/>
      </g>
      <g id="g254" transform="translate(28.737 2.6)">
        <path id="path256" d="M-1.668-2.758l.03-.767a5.423,5.423,0,0,1-1.455.8,4.62,4.62,0,0,1-1.56.261,2.1,2.1,0,0,1-1.772-.673,2.114,2.114,0,0,1-.162-1.9A2.978,2.978,0,0,1-5.414-6.805a6.805,6.805,0,0,1,2.806-.831c.166-.027.389-.049.668-.083.97-.112,1.514-.371,1.631-.792a.434.434,0,0,0-.119-.506,1.313,1.313,0,0,0-.77-.162,1.355,1.355,0,0,0-.763.2,1.2,1.2,0,0,0-.459.609h-2.9a3.348,3.348,0,0,1,1.6-2.056,6.252,6.252,0,0,1,3.166-.692,6.679,6.679,0,0,1,1.653.183,2.509,2.509,0,0,1,1.076.5,1.464,1.464,0,0,1,.5.876A3.447,3.447,0,0,1,2.5-8.17l-1.249,4.5a.9.9,0,0,0-.026.4.48.48,0,0,0,.164.281l-.067.228Zm.724-3.607a10.835,10.835,0,0,1-1.238.383c-.8.215-1.253.5-1.351.857a.548.548,0,0,0,.071.538.726.726,0,0,0,.571.191A1.8,1.8,0,0,0-1.7-4.768,2.343,2.343,0,0,0-1.03-5.951c.027-.115.051-.2.066-.26Z" transform="translate(6.726 11.121)" fill="#1b3281"/>
      </g>
      <g id="g258" transform="translate(36.808 2.885)">
        <path id="path260" d="M0-3.714.661-6.1h.852a1.228,1.228,0,0,0,.667-.159.862.862,0,0,0,.334-.527,1.891,1.891,0,0,0,.064-.345,3.833,3.833,0,0,0,0-.442l-.455-7.4H5.137l-.047,4.9,2.631-4.9h2.8L5.873-6.936Q5.081-5.588,4.718-5.083a3.86,3.86,0,0,1-.69.766,2.582,2.582,0,0,1-.953.514A6.041,6.041,0,0,1,1.49-3.65c-.2,0-.439,0-.693-.017S.275-3.692,0-3.714" transform="translate(0 14.976)" fill="#1b3281"/>
      </g>
    </g>
  </g>
</svg>
