<svg xmlns="http://www.w3.org/2000/svg" xmlns:xlink="http://www.w3.org/1999/xlink" width="77" height="48" viewBox="0 0 77 48">
  <defs>
    <clipPath id="clip-path">
      <path id="path26" d="M0-76.2H53.922v26.961H0Z" transform="translate(0 76.2)"/>
    </clipPath>
  </defs>
  <g id="Group_11992" data-name="Group 11992" transform="translate(7249 259)">
    <g id="Path_4242" data-name="Path 4242" transform="translate(-7249 -259)" fill="none">
      <path d="M11,0H66A11,11,0,0,1,77,11V37A11,11,0,0,1,66,48H11A11,11,0,0,1,0,37V11A11,11,0,0,1,11,0Z" stroke="none"/>
      <path d="M 11 1 C 5.485977172851562 1 1 5.485977172851562 1 11 L 1 37 C 1 42.51402282714844 5.485977172851562 47 11 47 L 66 47 C 71.51402282714844 47 76 42.51402282714844 76 37 L 76 11 C 76 5.485977172851562 71.51402282714844 1 66 1 L 11 1 M 11 0 L 66 0 C 72.07513427734375 0 77 4.92486572265625 77 11 L 77 37 C 77 43.07513427734375 72.07513427734375 48 66 48 L 11 48 C 4.92486572265625 48 0 43.07513427734375 0 37 L 0 11 C 0 4.92486572265625 4.92486572265625 0 11 0 Z" stroke="none" fill="#d6d6d6"/>
    </g>
    <g id="layer1" transform="translate(-7226.074 -232.958)">
      <g id="g22" transform="translate(-10.926 -15.042)">
        <g id="g24" clip-path="url(#clip-path)">
          <g id="g30" transform="translate(3.869 19.339)">
            <path id="path32" d="M-.679,0h.346L-.654,1.342a.575.575,0,0,0,.027.449.406.406,0,0,0,.366.15.637.637,0,0,0,.437-.15.839.839,0,0,0,.242-.449L.74,0h.35L.761,1.375a1.188,1.188,0,0,1-.381.671,1.1,1.1,0,0,1-.718.223.72.72,0,0,1-.61-.222.8.8,0,0,1-.058-.672Z" transform="translate(1.05)" fill="#696a6a"/>
          </g>
          <g id="g34" transform="translate(5.963 19.251)">
            <path id="path36" d="M0-4.2l.55-2.3L1.595-5.142c.028.038.056.079.084.122s.056.092.086.146l.367-1.532h.324l-.55,2.3L.838-5.485A1.23,1.23,0,0,1,.758-5.6a1.267,1.267,0,0,1-.068-.13L.322-4.2Z" transform="translate(0 6.493)" fill="#696a6a"/>
          </g>
          <g id="g38" transform="translate(8.389 19.339)">
            <path id="path40" d="M0-4.036l.529-2.21h.35L.35-4.036Z" transform="translate(0 6.246)" fill="#696a6a"/>
          </g>
          <g id="g42" transform="translate(9.243 19.339)">
            <path id="path44" d="M0-4.036l.529-2.21h1.2l-.073.3H.806L.674-5.39h.852l-.075.315H.6L.35-4.036Z" transform="translate(0 6.246)" fill="#696a6a"/>
          </g>
          <g id="g46" transform="translate(10.83 19.339)">
            <path id="path48" d="M0-4.036l.529-2.21h.35L.35-4.036Z" transform="translate(0 6.246)" fill="#696a6a"/>
          </g>
          <g id="g50" transform="translate(11.684 19.339)">
            <path id="path52" d="M0-4.036l.529-2.21h1.2l-.073.3H.806l-.133.554h.852l-.075.316H.6l-.171.714h.852L1.2-4.036Z" transform="translate(0 6.246)" fill="#696a6a"/>
          </g>
          <g id="g54" transform="translate(13.288 19.339)">
            <path id="path56" d="M-.781-3.443h.294a1.59,1.59,0,0,0,.372-.033.7.7,0,0,0,.238-.112A.935.935,0,0,0,.37-3.854a1.245,1.245,0,0,0,.15-.371A1,1,0,0,0,.547-4.6a.494.494,0,0,0-.119-.267.4.4,0,0,0-.192-.112,1.627,1.627,0,0,0-.39-.033H-.407Zm-.428.325.529-2.21h.472a2.842,2.842,0,0,1,.637.047.652.652,0,0,1,.291.159.673.673,0,0,1,.193.376,1.282,1.282,0,0,1-.029.524A1.61,1.61,0,0,1,.663-3.7a1.324,1.324,0,0,1-.373.375,1.146,1.146,0,0,1-.36.159,2.568,2.568,0,0,1-.573.048h-.566Z" transform="translate(1.209 5.328)" fill="#696a6a"/>
          </g>
          <g id="g58" transform="translate(16.427 19.339)">
            <path id="path60" d="M-1.2-1.687h.09a.882.882,0,0,0,.4-.065.338.338,0,0,0,.152-.229q.042-.177-.044-.249A.616.616,0,0,0-.964-2.3h-.09Zm-.092.294L-1.531-.4H-1.86l.529-2.21H-.8a1.549,1.549,0,0,1,.34.026A.4.4,0,0,1-.288-2.5a.374.374,0,0,1,.109.207A.669.669,0,0,1-.19-2a.891.891,0,0,1-.127.29A.707.707,0,0,1-.526-1.5a.67.67,0,0,1-.214.086,1.777,1.777,0,0,1-.353.026h-.2Z" transform="translate(1.86 2.611)" fill="#696a6a"/>
          </g>
          <g id="g62" transform="translate(17.574 19.251)">
            <path id="path64" d="M-1.744-2.611h.6l-.1-.5c0-.032-.009-.069-.013-.111s-.006-.088-.008-.14q-.035.072-.07.135t-.068.115Zm.76.868-.108-.569h-.853l-.386.569H-2.7l1.593-2.3.492,2.3Z" transform="translate(2.699 4.04)" fill="#696a6a"/>
          </g>
          <g id="g66" transform="translate(19.964 19.339)">
            <path id="path68" d="M-.359-4.036l.242-1.011-.438-1.2h.368l.272.75c.006.019.014.044.022.076s.017.065.025.1c.022-.035.045-.069.067-.1s.045-.06.069-.086l.641-.741h.35L.23-5.047-.012-4.036Z" transform="translate(0.555 6.246)" fill="#696a6a"/>
          </g>
          <g id="g70" transform="translate(21.276 19.245)">
            <path id="path72" d="M-4.064-2.214q0-.026.015-.142.011-.1.018-.16a1.4,1.4,0,0,1-.074.151,1.78,1.78,0,0,1-.1.154l-.845,1.177-.276-1.2a1.4,1.4,0,0,1-.027-.143c-.006-.046-.01-.092-.012-.138-.012.046-.027.095-.046.146s-.041.1-.067.159l-.492,1.088H-6.29l1.06-2.3.3,1.395c0,.022.011.059.018.11s.017.115.027.19q.054-.1.155-.241l.041-.06.955-1.393-.031,2.3h-.325Z" transform="translate(6.29 3.426)" fill="#696a6a"/>
          </g>
          <g id="g74" transform="translate(24.083 19.339)">
            <path id="path76" d="M0-4.036l.529-2.21h1.2l-.073.3H.806l-.133.554h.852l-.075.316H.6l-.171.714h.852L1.2-4.036Z" transform="translate(0 6.246)" fill="#696a6a"/>
          </g>
          <g id="g78" transform="translate(25.687 19.251)">
            <path id="path80" d="M0-4.2l.55-2.3L1.595-5.142c.028.038.056.079.084.122s.056.092.086.146l.367-1.532h.324l-.55,2.3L.838-5.485A1.23,1.23,0,0,1,.758-5.6a1.267,1.267,0,0,1-.068-.13L.322-4.2Z" transform="translate(0 6.493)" fill="#696a6a"/>
          </g>
          <g id="g82" transform="translate(28.337 19.339)">
            <path id="path84" d="M-1.685-.557l-.456,1.905h-.35l.456-1.905h-.572l.073-.3h1.492l-.073.3Z" transform="translate(2.607 0.861)" fill="#696a6a"/>
          </g>
          <g id="g86" transform="translate(29.622 19.289)">
            <path id="path88" d="M0-3.319l.311-.133A.3.3,0,0,0,.4-3.226a.367.367,0,0,0,.252.078.422.422,0,0,0,.269-.089.416.416,0,0,0,.149-.238q.047-.195-.232-.347l-.06-.033a1.08,1.08,0,0,1-.4-.322A.466.466,0,0,1,.35-4.531a.757.757,0,0,1,.284-.438.813.813,0,0,1,.509-.168.657.657,0,0,1,.376.094.36.36,0,0,1,.157.271l-.308.145a.332.332,0,0,0-.106-.153A.273.273,0,0,0,1.1-4.827a.4.4,0,0,0-.243.075.347.347,0,0,0-.132.2q-.048.2.276.371l.039.021a.922.922,0,0,1,.368.3.474.474,0,0,1,.033.36.866.866,0,0,1-.312.5.892.892,0,0,1-.565.185.608.608,0,0,1-.42-.13A.463.463,0,0,1,0-3.319" transform="translate(0 5.136)" fill="#696a6a"/>
          </g>
          <g id="g90" transform="translate(32.209 19.339)">
            <path id="path92" d="M0-4.036l.529-2.21h.35L.35-4.036Z" transform="translate(0 6.246)" fill="#696a6a"/>
          </g>
          <g id="g94" transform="translate(33.063 19.251)">
            <path id="path96" d="M0-4.2l.55-2.3L1.595-5.142c.028.038.056.079.084.122s.056.092.086.146l.367-1.532h.324l-.55,2.3L.838-5.485A1.232,1.232,0,0,1,.758-5.6a1.292,1.292,0,0,1-.068-.13L.322-4.2Z" transform="translate(0 6.493)" fill="#696a6a"/>
          </g>
          <g id="g98" transform="translate(35.712 19.339)">
            <path id="path100" d="M-1.685-.557l-.456,1.905h-.35l.456-1.905h-.572l.073-.3h1.492l-.073.3Z" transform="translate(2.607 0.861)" fill="#696a6a"/>
          </g>
          <g id="g102" transform="translate(37.016 19.339)">
            <path id="path104" d="M0-4.036l.529-2.21h1.2l-.073.3H.806l-.133.554h.852l-.076.316H.6l-.171.714h.852L1.2-4.036Z" transform="translate(0 6.246)" fill="#696a6a"/>
          </g>
          <g id="g106" transform="translate(38.62 19.339)">
            <path id="path108" d="M-1.194-1.72h.063a.788.788,0,0,0,.385-.066A.358.358,0,0,0-.6-2.022q.044-.183-.036-.257a.537.537,0,0,0-.345-.075h-.063Zm-.089.279-.237.989h-.328l.529-2.21H-.83A1.391,1.391,0,0,1-.5-2.633a.388.388,0,0,1,.18.1.384.384,0,0,1,.105.207.664.664,0,0,1-.012.277.81.81,0,0,1-.225.416.71.71,0,0,1-.413.18l.5,1.005h-.4l-.48-.989Z" transform="translate(1.848 2.662)" fill="#696a6a"/>
          </g>
          <g id="g110" transform="translate(40.308 19.339)">
            <path id="path112" d="M0-4.036l.529-2.21h1.2l-.073.3H.806L.674-5.39h.852l-.076.315H.6L.35-4.036Z" transform="translate(0 6.246)" fill="#696a6a"/>
          </g>
          <g id="g114" transform="translate(41.489 19.251)">
            <path id="path116" d="M-1.744-2.611h.6l-.1-.5q-.007-.048-.013-.111c0-.042-.006-.088-.008-.14q-.035.072-.07.135t-.068.115Zm.761.868-.108-.569h-.853l-.386.569H-2.7l1.593-2.3.492,2.3Z" transform="translate(2.699 4.04)" fill="#696a6a"/>
          </g>
          <g id="g118" transform="translate(43.857 19.286)">
            <path id="path120" d="M-3.647-1.078a.773.773,0,0,0-.267-.195.831.831,0,0,0-.332-.065.954.954,0,0,0-.63.232,1.1,1.1,0,0,0-.366.6.711.711,0,0,0,.074.59A.552.552,0,0,0-4.68.32,1.1,1.1,0,0,0-4.3.25,1.562,1.562,0,0,0-3.918.04l-.1.406A1.345,1.345,0,0,1-4.359.6a1.343,1.343,0,0,1-.373.051A1.08,1.08,0,0,1-5.169.57a.755.755,0,0,1-.31-.245.812.812,0,0,1-.153-.374,1.183,1.183,0,0,1,.025-.458,1.5,1.5,0,0,1,.194-.456,1.551,1.551,0,0,1,.335-.375,1.488,1.488,0,0,1,.427-.247,1.351,1.351,0,0,1,.469-.084,1.028,1.028,0,0,1,.348.057.925.925,0,0,1,.293.171Z" transform="translate(5.644 1.668)" fill="#696a6a"/>
          </g>
          <g id="g122" transform="translate(45.887 19.339)">
            <path id="path124" d="M0-4.036l.529-2.21h1.2l-.073.3H.806l-.133.554h.852l-.076.316H.6l-.171.714h.852L1.2-4.036Z" transform="translate(0 6.246)" fill="#696a6a"/>
          </g>
          <g id="g126" transform="translate(37.094 5.324)">
            <path id="path128" d="M-4.4-22.079H-6.8l3.347-12.089h2.407Z" transform="translate(6.803 34.169)" fill="#66686c"/>
          </g>
          <g id="g130" transform="translate(20.889 5.36)">
            <path id="path132" d="M-31.708-.632a.892.892,0,0,0-.774-.346H-45.718l-.656,2.368h12.041l-.7,2.53h-9.633V3.913h-2.407l-2,7.213h2.409l1.341-4.841h10.828a1.538,1.538,0,0,0,.956-.346,1.606,1.606,0,0,0,.59-.856L-31.607.241a.983.983,0,0,0-.1-.873" transform="translate(49.07 0.978)" fill="#66686c"/>
          </g>
          <g id="g134" transform="translate(5.09 5.359)">
            <path id="path136" d="M-26.294-20.636a1.106,1.106,0,0,1-1.066.81H-39.778a.868.868,0,0,1-.755-.346.961.961,0,0,1-.106-.856l3.03-10.908H-35.2l-2.706,9.742h9.637l2.706-9.742h2.409Z" transform="translate(40.691 31.936)" fill="#66686c"/>
          </g>
          <g id="g138" transform="translate(43.647 5.346)">
            <path id="path140" d="M-6.134,0l3.047,6.06-6.406,6.059Z" transform="translate(9.493)" fill="#27803b"/>
          </g>
          <g id="g142" transform="translate(41.506 5.346)">
            <path id="path144" d="M-6.143,0-3.1,6.06l-6.409,6.059Z" transform="translate(9.506)" fill="#e9661c"/>
          </g>
        </g>
      </g>
    </g>
  </g>
</svg>
