<svg xmlns="http://www.w3.org/2000/svg" width="77" height="48" viewBox="0 0 77 48">
  <g id="Group_922" data-name="Group 922" transform="translate(13028 -6166)">
    <g id="Group_907" data-name="Group 907" transform="translate(-11 -67)">
      <rect id="Rectangle_2025" data-name="Rectangle 2025" width="77" height="48" rx="11" transform="translate(-13017 6233)" fill="#1666bf"/>
      <g id="visa" transform="translate(-13012.397 6146.651)">
        <g id="Group_906" data-name="Group 906" transform="translate(6.043 100.23)">
          <g id="Group_905" data-name="Group 905" transform="translate(0 0)">
            <path id="Path_2333" data-name="Path 2333" d="M47.653,100.23l-3.246,20.2H49.6l3.244-20.2ZM63.3,108.457c-1.813-.9-2.924-1.5-2.924-2.415.022-.833.94-1.685,2.989-1.685a9.028,9.028,0,0,1,3.864.748l.471.21.705-4.226a13.094,13.094,0,0,0-4.656-.833c-5.123,0-8.73,2.664-8.753,6.473-.042,2.811,2.583,4.371,4.547,5.307,2.007.96,2.69,1.582,2.69,2.435-.022,1.31-1.623,1.914-3.116,1.914a10.55,10.55,0,0,1-4.868-1.041l-.683-.311-.725,4.392a16.2,16.2,0,0,0,5.786,1.043c5.444,0,8.987-2.623,9.032-6.683C67.677,111.558,66.292,109.852,63.3,108.457Zm18.4-8.165H77.692a2.571,2.571,0,0,0-2.712,1.625l-7.706,18.51h5.444l1.5-4.007h6.091l.778,4.024h4.8Zm-5.978,12.083c.105.01,2.09-6.542,2.09-6.542l1.58,6.542ZM40.073,100.23,34.99,113.952l-.554-2.706a15.079,15.079,0,0,0-7.174-8.2l4.654,17.362h5.489l8.157-20.175H40.073Z" transform="translate(-27.262 -100.23)" fill="#fefefe"/>
          </g>
        </g>
        <path id="Path_2334" data-name="Path 2334" d="M11.507,102.849a3.389,3.389,0,0,0-3.375-2.6H.083L0,100.622c6.279,1.548,11.55,6.311,13.259,10.792Z" transform="translate(0 -0.014)" fill="#efc75e"/>
      </g>
    </g>
  </g>
</svg>
